<svg xmlns="http://www.w3.org/2000/svg" width="699" height="699" viewBox="0 0 699 699" fill="none" class="injected-svg" data-src="/scenes/3/templated-303-micro-managing.svg" xmlns:xlink="http://www.w3.org/1999/xlink" role="img" style="width: 100%; height: 100%; max-width: 100%; max-height: 100%; position: absolute; top: 0; left: 0; right: 0; bottom: 0; z-index: 0;" id="scene">
<g id="templated-303 - micro managing" clip-path="url(#clip0_7680_151777-256)">
<g id="singaporean-box-1" transform="matrix(-0.999456 0.0329747 0.0329747 0.999456 717.42 108.669) scale(1.00)" style="--color-illustration-primary: #3A3E46; --color-illustration-secondary: #D1D5DB; --color-illustration-accent: #EF4444; --color-illustration-skin: #F5B896;">

<svg xmlns="http://www.w3.org/2000/svg" width="500" height="700" viewBox="0 0 500 700" fill="none" class="injected-svg" data-src="/singaporean/lower/005-strolling.svg" xmlns:xlink="http://www.w3.org/1999/xlink">
<path d="M288.392 614.877C282.909 615.318 273.151 609.62 266.449 604.417L246.401 606.03L249.316 625.243C255.444 624.565 270.989 623.5 284.141 624.665C300.58 626.12 295.978 614.267 288.392 614.877Z" fill="#3A3E46" stroke="black" stroke-width="1.9" stroke-linecap="round" stroke-linejoin="round"/>
<path d="M172.312 612.042C168.08 607.565 170.164 599.279 169.043 589.937L153.571 573.57L142.1 589.061C146.961 593.94 157.234 621.774 167.932 622.658C184.483 624.027 178.166 618.235 172.312 612.042Z" fill="#3A3E46" stroke="black" stroke-width="1.9" stroke-linecap="round" stroke-linejoin="round"/>
<path d="M201.628 348.081C193.581 353.372 184.08 377.853 189.558 403.638C193.126 420.435 195.938 449.714 189.558 472.689C183.543 494.349 166.179 536.994 148.998 575.4L179.761 598.235C179.761 598.235 213.699 496.758 223.255 481.486C229.686 471.207 233.695 452.46 236.952 433.364C236.075 447.784 233.84 467.24 236.349 481.486C240.65 505.9 240.163 606.263 240.163 606.263H277.102C273.581 600.594 270.98 470.838 270.98 464.032C270.98 447.123 272.809 372.587 260.739 339.328C260.739 339.328 246.164 334.701 229.064 337.272C211.964 339.842 201.628 348.081 201.628 348.081Z" fill="#D1D5DB"/>
<path d="M241.36 406.215C237.018 432.243 232.81 466.214 223.255 481.486C213.699 496.758 179.761 598.235 179.761 598.235L148.998 575.4C166.179 536.994 183.543 494.349 189.558 472.689C195.938 449.714 193.126 420.435 189.558 403.638C184.08 377.853 193.581 353.372 201.628 348.081C201.628 348.081 211.964 339.842 229.064 337.272C246.164 334.701 260.739 339.328 260.739 339.328C272.809 372.587 270.98 447.123 270.98 464.032C270.98 470.838 273.581 600.594 277.102 606.263H240.163C240.163 606.263 240.65 505.9 236.349 481.486C233.774 466.868 236.196 446.763 237.018 432.243C239.08 420.631 241.36 406.215 241.36 406.215ZM241.36 406.215C242.422 398.023 244.646 380.208 245.047 374.482" stroke="black" stroke-width="1.9" stroke-linecap="round" stroke-linejoin="round"/>
<path d="M223.499 365.123C221.494 374.464 213.877 391.395 199.445 384.389" stroke="black" stroke-width="1.9" stroke-linecap="round" stroke-linejoin="round"/>
</svg><svg xmlns="http://www.w3.org/2000/svg" width="500" height="700" viewBox="0 0 500 700" fill="none" class="injected-svg" data-src="/singaporean/upper/templated-031-hold-right-holding-an-item.svg" xmlns:xlink="http://www.w3.org/1999/xlink">
<g id="templated-031 - hold-right holding an item">
<g id="NEW your singaporean">
<g id="upper body">
<g id="clothing">
<path id="left hand-281" d="M280.299 342C285.799 316.55 283.3 301 280.299 279L266.317 280.939L263.799 316.55L280.299 342Z" fill="#F5B896" stroke="black" stroke-width="1.9" stroke-linecap="round" stroke-linejoin="round"/>
<g id="Vector 40">
<path d="M286.799 276.5C280.299 269.5 265.436 223.985 233.436 220.985L209.936 214.985C198.936 226.319 175.336 254.885 168.936 278.485C178.936 280.985 193.936 283.485 199.936 286.985C199.936 307.652 197.036 341.785 187.436 346.985C196.27 348.985 216.036 351.985 224.436 347.985C234.936 342.985 262.936 339.985 278.436 345.485C277.998 331 275.015 307.974 267.092 284C266.885 283.374 266.674 282.747 266.461 282.12C267.055 278.801 279.55 279.967 286.799 276.5Z" fill="#3A3E46"/>
<path d="M199.936 286.985C193.936 283.485 178.936 280.985 168.936 278.485C175.336 254.885 198.936 226.319 209.936 214.985L233.436 220.985C265.436 223.985 280.299 269.5 286.799 276.5C278.436 280.5 263.092 278.333 267.092 284C264.018 276.015 256.422 257 250.436 246.985M199.936 286.985C199.936 307.652 197.036 341.785 187.436 346.985C196.27 348.985 216.036 351.985 224.436 347.985C234.936 342.985 262.936 339.985 278.436 345.485C277.77 323.485 271.236 281.785 250.436 246.985M199.936 286.985L209.936 291.985C209.936 273.5 209.936 257 211.936 242.485M250.436 246.985C248.827 244.185 245.128 240.166 243.298 238" stroke="black" stroke-width="1.9" stroke-linecap="round" stroke-linejoin="round"/>
</g>
<path id="Vector 3247-282" d="M194.646 338.135L235.064 302.789L194.646 331.907V338.135Z" fill="black"/>
<path id="Vector 63-283" d="M271.937 343.485C277.137 328.285 270.103 299.652 266.937 283.985C272.137 299.585 277.77 329.319 278.937 345.485L271.937 343.485Z" fill="black" stroke="black" stroke-width="1.9" stroke-linecap="round" stroke-linejoin="round"/>
<path id="Vector 42-284" d="M168.434 279.072C178.911 285.576 195.434 299.974 209.434 293.009C196.45 287.899 170.074 277.957 168.434 279.072Z" fill="black" stroke="black" stroke-width="1.9" stroke-linecap="round" stroke-linejoin="round"/>
</g>
<g id="hands">
<g id="object-hold-right" transform="translate(214.457 169.5)">

<g><svg xmlns="http://www.w3.org/2000/svg" width="144" height="169" viewBox="0 0 144 169" fill="none" class="injected-svg" data-src="/singaporean/object/hold-right/028-receipt.svg" xmlns:xlink="http://www.w3.org/1999/xlink">
<path d="M40.7228 66.5664L40.7229 66.5664L40.72 66.577C37.318 79.0483 33.4212 98.3706 32.7785 115.793C32.457 124.508 32.9524 132.691 34.7 139.286C36.4126 145.749 39.2834 150.529 43.6008 152.907L84.5923 143.992C80.9246 138.495 77.437 130.532 77.9193 119.029C78.4356 106.713 83.4986 90.4323 97.5863 68.8566C98.0614 67.8842 98.5046 66.6994 98.7596 65.496C99.0211 64.2624 99.0705 63.0764 98.8143 62.0957C98.567 61.1492 98.0371 60.3857 97.0669 59.8965C96.0583 59.388 94.4739 59.1265 92.0442 59.4461C85.5271 60.3032 82.2853 59.1471 79.9159 57.8606C79.4963 57.6328 79.1212 57.4144 78.7739 57.2121C77.1792 56.2835 76.1697 55.6956 74.1244 56.1045C71.3884 56.6516 68.3958 58.2739 65.572 59.9261C65.1913 60.1489 64.8127 60.3727 64.4388 60.5937C63.4534 61.1763 62.5009 61.7393 61.6298 62.2121C60.4428 62.8564 59.2918 63.3993 58.3059 63.5964C57.3637 63.7848 55.7662 63.8084 54.0295 63.8257C53.8748 63.8272 53.7182 63.8287 53.5599 63.8302C51.8865 63.8459 50.0248 63.8635 48.2205 63.981C46.2349 64.1103 44.3936 64.3571 42.9999 64.8228C41.5632 65.3027 40.893 65.9128 40.7228 66.5664Z" fill="white" stroke="black" stroke-width="1.9"/>
<path d="M79.9311 76.4854L52.1243 80.3134" stroke="black" stroke-width="1.9" stroke-linecap="round" stroke-linejoin="round"/>
<path d="M77.433 85.6436L49.6263 89.4716" stroke="black" stroke-width="1.9" stroke-linecap="round" stroke-linejoin="round"/>
<path d="M85.4731 145.175C98.5274 141.179 96.5743 131.411 93.9659 127.026L45.6787 136.681C49.0085 142.942 45.2894 150.612 43.0137 153.664L85.4731 145.175Z" fill="#EF4444" stroke="black" stroke-width="1.9" stroke-linecap="round" stroke-linejoin="round"/>
</svg></g></g>
<g id="Vector 370">
<path d="M169.159 336.736C187.159 344.236 231.936 305.717 237.298 301.226C251.936 302.217 263.793 292.487 265.797 288.987C267.674 285.708 264.797 285.047 262.596 286.016C264.45 284.637 266.494 282.481 265.797 280.487C264.909 277.945 263.298 278.384 261.642 279.256C265.518 273.407 261.298 273.123 258.798 274.487C253.298 277.487 251.298 278.384 248.298 278.384C249.298 273.894 250.734 270.892 246.298 272.39C242.981 273.509 234.729 282.234 233.798 287.698C220.298 294.126 203.299 305.5 198.299 307.5C199.299 305.5 204.299 290.987 204.299 290.987C204.299 290.987 191.799 281.71 177.298 281.71C173.298 287.21 157.159 330.236 169.159 336.736Z" fill="#F5B896"/>
<path d="M198.299 307.5C203.299 305.5 220.298 294.126 233.798 287.698C234.729 282.234 242.981 273.509 246.298 272.39C250.734 270.892 249.298 273.894 248.298 278.384C251.298 278.384 253.298 277.487 258.798 274.487C261.298 273.123 265.518 273.407 261.642 279.256M198.299 307.5C199.299 305.5 204.299 290.987 204.299 290.987C204.299 290.987 191.799 281.71 177.298 281.71C173.298 287.21 157.159 330.236 169.159 336.736C187.159 344.236 231.936 305.717 237.298 301.226C251.936 302.217 263.793 292.487 265.797 288.987C268.088 284.986 263.298 284.883 261.298 286.884M198.299 307.5L182.799 315.5M261.642 279.256C263.298 278.384 264.909 277.945 265.797 280.487C266.667 282.975 263.27 285.715 261.298 286.884M261.642 279.256C258.298 282.384 252.535 284.632 248.298 284.884M261.298 286.884C259.326 288.054 253.464 290.987 250.297 290.987" stroke="black" stroke-width="1.9" stroke-linecap="round" stroke-linejoin="round"/>
</g>
</g>
</g>
</g>
</g>
</svg><svg xmlns="http://www.w3.org/2000/svg" width="500" height="700" viewBox="0 0 500 700" fill="none" class="injected-svg" data-src="/singaporean/head/052-beanie.svg" xmlns:xlink="http://www.w3.org/1999/xlink">
<path d="M261.289 191.021V152.521C261.289 152.521 258.783 139.252 234.228 138.752C209.674 138.252 211.678 152.521 211.678 152.521C211.678 162.545 210.013 167.129 213.131 169.794C209.029 167.135 202.122 164.56 200.653 171.521C199.05 179.121 207.335 183.021 211.678 183.521C214.885 200.721 211.678 212.354 209.674 216.521C213.683 224.521 227.714 223.188 234.228 221.521V209.021C261.088 209.821 261.289 200.021 261.289 191.021Z" fill="#F5B896" stroke="black" stroke-width="1.9" stroke-linejoin="round"/>
<path d="M233.663 209.057C230.152 208.897 224.384 207.856 222.828 204.972C222.762 204.83 222.699 204.692 222.638 204.557C222.692 204.699 222.755 204.838 222.828 204.972C225.261 210.267 230.539 220.278 233.663 221.057V209.057Z" fill="black" stroke="black" stroke-width="1.9" stroke-linecap="round" stroke-linejoin="round"/>
<path d="M223.518 159.524C225.643 159.524 232.257 160.583 234.382 159.524C236.506 158.464 235.225 155.343 238.177 152.923C240.708 153.449 243.736 159.524 246.507 159.524C249.616 159.524 245.463 152.082 248.615 152.082C256.181 152.082 260.199 163.62 261.193 163.62C263.317 163.62 262.64 155.182 256.181 147.128C254.057 144.478 246.886 136.881 229.891 138.969C225.647 139.491 222.702 140.64 220.66 141.948C219.917 142.424 217.013 141.948 216.201 141.948C216.625 143.088 217.675 144.586 217.306 145.131C216.231 146.721 213.361 144 213.361 144C213.688 145.759 214.644 148.165 213.965 148.494C210.687 150.084 210.497 154.106 209.955 157.17C208.626 164.689 209.955 166.008 209.955 166.008C209.955 166.008 209.144 166.529 213.965 171.148C218.787 175.766 220.056 159.524 223.518 159.524Z" fill="black" stroke="black" stroke-width="1.99689" stroke-linecap="round" stroke-linejoin="round"/>
<path d="M219.194 149.999C221.067 171.499 216.485 168.333 214.481 171.499C212.141 168.831 209.172 167.499 209.172 167.499C208.554 162.324 210.3 151.911 211.079 148.898L219.194 149.999Z" fill="black" stroke="black" stroke-width="1.5" stroke-linecap="round" stroke-linejoin="round"/>
<path d="M236.101 132.446C259.055 132.446 262.047 154.755 262.675 163.194C262.711 163.678 262.397 164.111 261.924 164.22C248.875 167.242 225.888 168.321 208.748 161.118C208.381 160.963 208.146 160.608 208.151 160.21C208.275 151.566 211.037 132.446 236.101 132.446Z" fill="#EF4444" stroke="black" stroke-width="1.5" stroke-linecap="round" stroke-linejoin="round"/>
<path d="M261.564 156.887C241.171 161.323 219.453 158.24 209.363 155.179C208.708 154.981 208.026 155.466 207.974 156.148C207.86 157.652 207.641 159.686 207.566 160.947C207.542 161.365 207.803 161.739 208.197 161.881C230.605 169.954 253.466 166.555 263.041 164.037C263.542 163.905 263.85 163.407 263.754 162.897L262.773 157.682C262.668 157.124 262.12 156.766 261.564 156.887Z" fill="#EF4444" stroke="black" stroke-width="1.5" stroke-linecap="round" stroke-linejoin="round"/>
<path d="M213.66 157.25C213.29 158.036 212.661 160.306 213.105 163.106" stroke="black" stroke-opacity="0.5" stroke-linecap="round" stroke-linejoin="round"/>
<path d="M219.989 158.563C219.619 159.348 218.99 161.618 219.434 164.418" stroke="black" stroke-opacity="0.5" stroke-linecap="round" stroke-linejoin="round"/>
<path d="M227.565 158.563C227.195 159.565 226.566 162.461 227.01 166.033" stroke="black" stroke-opacity="0.5" stroke-linecap="round" stroke-linejoin="round"/>
<path d="M257.502 157.847C257.872 158.808 258.501 161.587 258.057 165.014" stroke="black" stroke-opacity="0.5" stroke-linecap="round" stroke-linejoin="round"/>
<path d="M251.174 159.159C251.544 159.944 252.173 162.214 251.729 165.014" stroke="black" stroke-opacity="0.5" stroke-linecap="round" stroke-linejoin="round"/>
<path d="M243.598 159.159C243.968 160.161 244.597 163.057 244.153 166.629" stroke="black" stroke-opacity="0.5" stroke-linecap="round" stroke-linejoin="round"/>
<path d="M234.434 159.072C234.434 160.791 234.67 162.938 234.434 166.629" stroke="black" stroke-opacity="0.5" stroke-linecap="round" stroke-linejoin="round"/>
<path d="M224.899 134.854C217.98 141.206 215.344 148.137 215.788 156.184" stroke="black" stroke-opacity="0.5" stroke-linecap="round" stroke-linejoin="round"/>
<path d="M229.882 133.335C224.761 138.582 220.719 148.763 221.163 156.81" stroke="black" stroke-opacity="0.5" stroke-linecap="round" stroke-linejoin="round"/>
<path d="M232.649 133.197C230.712 137.616 228.33 147.786 228.774 158.053" stroke="black" stroke-opacity="0.5" stroke-linecap="round" stroke-linejoin="round"/>
<path d="M245.11 134.716C250.092 138.858 255.79 147.4 255.346 157.251" stroke="black" stroke-opacity="0.5" stroke-linecap="round" stroke-linejoin="round"/>
<path d="M239.021 132.645C245.387 138.582 249.462 150.006 249.018 158.052" stroke="black" stroke-opacity="0.5" stroke-linecap="round" stroke-linejoin="round"/>
<path d="M236.945 132.783C239.99 137.754 242.148 147.282 242.148 158.63" stroke="black" stroke-opacity="0.5" stroke-linecap="round" stroke-linejoin="round"/>
<path d="M234.434 132.645C234.434 137.586 234.67 148.021 234.434 158.629" stroke="black" stroke-opacity="0.5" stroke-linecap="round" stroke-linejoin="round"/>
</svg><svg xmlns="http://www.w3.org/2000/svg" width="500" height="700" viewBox="0 0 500 700" fill="none" class="injected-svg" data-src="/singaporean/eyes/008-concerned.svg" xmlns:xlink="http://www.w3.org/1999/xlink">
<ellipse cx="1.50336" cy="1.5" rx="1.50336" ry="1.5" transform="matrix(-1 0 0 1 237.029 174.011)" fill="black"/>
<ellipse cx="1.50336" cy="1.5" rx="1.50336" ry="1.5" transform="matrix(-1 0 0 1 253.065 173)" fill="black"/>
<path d="M236.027 166.512C236.027 169.5 234.023 171.512 229.011 171.512" stroke="black" stroke-width="1.5" stroke-linecap="round" stroke-linejoin="round"/>
<path d="M250.058 166.512C250.058 168.5 253.065 171 255.571 169.512" stroke="black" stroke-width="1.5" stroke-linecap="round" stroke-linejoin="round"/>
<path d="M239.244 179.528C240.05 176.887 242.85 175.398 245.498 176.203C248.145 177.008 249.638 179.802 248.831 182.443C248.353 184.008 247.176 185.168 245.745 185.687" stroke="black" stroke-width="1.5" stroke-linecap="round" stroke-linejoin="round"/>
</svg><svg xmlns="http://www.w3.org/2000/svg" width="500" height="700" viewBox="0 0 500 700" fill="none" class="injected-svg" data-src="/singaporean/mouth/001-laughing.svg" xmlns:xlink="http://www.w3.org/1999/xlink">
<path d="M237.958 199.066C231.844 196.97 227.011 185.327 230.509 186.875C233.956 190.091 243.954 194.94 252.688 190.66C254.783 189.634 249.785 203.121 237.958 199.066Z" fill="black" stroke="black" stroke-width="1.5" stroke-linecap="round" stroke-linejoin="round"/>
<path d="M240.23 196.734C243.43 194.684 246.61 196.497 247.749 197.584C240.035 201.378 235.279 197.19 233.302 194.64C235.725 192.787 239.129 195.121 240.23 196.734Z" fill="white"/>
</svg><svg xmlns="http://www.w3.org/2000/svg" width="500" height="700" viewBox="0 0 500 700" fill="none" class="injected-svg" data-src="/singaporean/accessory/018-sleepy-eyes.svg" xmlns:xlink="http://www.w3.org/1999/xlink">
<ellipse cx="234.022" cy="173.5" rx="6.51454" ry="6.5" fill="white" stroke="black" stroke-width="1.5" stroke-linecap="round" stroke-linejoin="round"/>
<path d="M258.891 173.5C258.891 177.09 255.975 180 252.377 180C251.292 180 250.27 179.736 249.37 179.268C249.37 179.268 249.37 178.217 248.368 177C247.429 175.86 246.177 175.5 246.177 175.5C245.973 174.87 245.862 174.198 245.862 173.5C245.862 169.91 248.779 167 252.377 167C255.975 167 258.891 169.91 258.891 173.5Z" fill="white" stroke="black" stroke-width="1.5" stroke-linecap="round" stroke-linejoin="round"/>
<ellipse cx="1.50336" cy="1.5" rx="1.50336" ry="1.5" transform="matrix(-1 0 0 1 236.528 174)" fill="black"/>
<ellipse cx="1.50336" cy="1.5" rx="1.50336" ry="1.5" transform="matrix(-1 0 0 1 252.564 174)" fill="black"/>
<path d="M239.535 174H230.515" stroke="black" stroke-width="1.5" stroke-linecap="round" stroke-linejoin="round"/>
<path d="M257.575 174H248.555" stroke="black" stroke-width="1.5" stroke-linecap="round" stroke-linejoin="round"/>
<path d="M214.479 168.5C217.485 170.167 224.1 173.5 226.506 173.5" stroke="black" stroke-width="1.5" stroke-linecap="round" stroke-linejoin="round"/>
</svg></g>
<g id="singaporean-box-2" transform="translate(28.3262 21.9663) rotate(7.23426) scale(1.00)" style="--color-illustration-primary: #3A3E46; --color-illustration-secondary: #D1D5DB; --color-illustration-accent: #EF4444; --color-illustration-skin: #F5B896;">

<svg xmlns="http://www.w3.org/2000/svg" width="500" height="700" viewBox="0 0 500 700" fill="none" class="injected-svg" data-src="/singaporean/lower/005-strolling.svg" xmlns:xlink="http://www.w3.org/1999/xlink">
<path d="M288.392 614.877C282.909 615.318 273.151 609.62 266.449 604.417L246.401 606.03L249.316 625.243C255.444 624.565 270.989 623.5 284.141 624.665C300.58 626.12 295.978 614.267 288.392 614.877Z" fill="#3A3E46" stroke="black" stroke-width="1.9" stroke-linecap="round" stroke-linejoin="round"/>
<path d="M172.312 612.042C168.08 607.565 170.164 599.279 169.043 589.937L153.571 573.57L142.1 589.061C146.961 593.94 157.234 621.774 167.932 622.658C184.483 624.027 178.166 618.235 172.312 612.042Z" fill="#3A3E46" stroke="black" stroke-width="1.9" stroke-linecap="round" stroke-linejoin="round"/>
<path d="M201.628 348.081C193.581 353.372 184.08 377.853 189.558 403.638C193.126 420.435 195.938 449.714 189.558 472.689C183.543 494.349 166.179 536.994 148.998 575.4L179.761 598.235C179.761 598.235 213.699 496.758 223.255 481.486C229.686 471.207 233.695 452.46 236.952 433.364C236.075 447.784 233.84 467.24 236.349 481.486C240.65 505.9 240.163 606.263 240.163 606.263H277.102C273.581 600.594 270.98 470.838 270.98 464.032C270.98 447.123 272.809 372.587 260.739 339.328C260.739 339.328 246.164 334.701 229.064 337.272C211.964 339.842 201.628 348.081 201.628 348.081Z" fill="#D1D5DB"/>
<path d="M241.36 406.215C237.018 432.243 232.81 466.214 223.255 481.486C213.699 496.758 179.761 598.235 179.761 598.235L148.998 575.4C166.179 536.994 183.543 494.349 189.558 472.689C195.938 449.714 193.126 420.435 189.558 403.638C184.08 377.853 193.581 353.372 201.628 348.081C201.628 348.081 211.964 339.842 229.064 337.272C246.164 334.701 260.739 339.328 260.739 339.328C272.809 372.587 270.98 447.123 270.98 464.032C270.98 470.838 273.581 600.594 277.102 606.263H240.163C240.163 606.263 240.65 505.9 236.349 481.486C233.774 466.868 236.196 446.763 237.018 432.243C239.08 420.631 241.36 406.215 241.36 406.215ZM241.36 406.215C242.422 398.023 244.646 380.208 245.047 374.482" stroke="black" stroke-width="1.9" stroke-linecap="round" stroke-linejoin="round"/>
<path d="M223.499 365.123C221.494 374.464 213.877 391.395 199.445 384.389" stroke="black" stroke-width="1.9" stroke-linecap="round" stroke-linejoin="round"/>
</svg><svg xmlns="http://www.w3.org/2000/svg" width="500" height="700" viewBox="0 0 500 700" fill="none" class="injected-svg" data-src="/singaporean/upper/templated-027-hold-right-instructing-w-long-sleeve.svg" xmlns:xlink="http://www.w3.org/1999/xlink">
<g id="templated-027 - hold-right instructing w long sleeve">
<g id="NEW your singaporean">
<g id="upper body">
<g id="Vector 51">
<path d="M312.938 195.485C311.738 202.285 298.799 215.833 289.799 219C289.799 229.799 295.799 234.333 299.299 237.5C305.299 237.5 329.437 222.485 331.938 208.485C333.344 200.61 331.605 152.818 328.938 131.485C331.442 129.538 335.299 112 322.799 115.5C322.799 105 321.299 97.4997 318.799 99.4995C317.115 100.846 316.035 110.011 316.299 115.649C315.129 116.461 313.498 117.869 311.299 120C308.203 123 311.299 124 312.938 128.985C315.799 133 314.438 186.985 312.938 195.485Z" fill="#F5B896"/>
<path d="M289.799 219C298.799 215.833 311.738 202.285 312.938 195.485C314.438 186.985 315.799 133 312.938 128.985C311.299 124 308.203 123 311.299 120C320.071 111.5 319.799 114.5 317.299 121C318.591 118.969 320.299 113 316.299 115.649C316.035 110.011 317.115 100.846 318.799 99.4995C321.299 97.4997 322.799 105 322.799 115.5C335.299 112 331.442 129.538 328.938 131.485C331.605 152.818 333.344 200.61 331.938 208.485C329.437 222.485 305.299 237.5 299.299 237.5C295.799 234.333 289.799 229.799 289.799 219Z" stroke="black" stroke-width="1.9" stroke-linejoin="round"/>
</g>
<g id="clothing">
<g id="Vector 40">
<path d="M233.438 220.986C265.438 223.986 288.02 217.568 303.299 203.5C314.161 193.501 312.475 136.147 313.299 138.5H333.299C334.132 152.333 335.799 182.7 335.799 193.5C335.799 207 339.577 230.472 301.438 245.486C289.038 249.886 262.76 249.14 250.926 247.806C271.726 282.606 277.771 323.486 278.438 345.486C262.938 339.986 234.938 342.986 224.438 347.986C216.038 351.986 196.271 348.986 187.438 346.986L189.299 334.319C182.324 338.374 175.212 340.868 167.799 338.5C154.299 334.189 161.764 300.54 168.938 278.486C178.069 250.416 198.938 226.319 209.938 214.986L233.438 220.986Z" fill="#3A3E46"/>
<path d="M250.926 247.806C271.726 282.606 277.771 323.486 278.438 345.486C262.938 339.986 234.938 342.986 224.438 347.986C216.038 351.986 196.271 348.986 187.438 346.986L189.299 334.319M250.926 247.806C262.76 249.14 289.038 249.886 301.438 245.486C339.577 230.472 335.799 207 335.799 193.5C335.799 182.7 334.132 152.333 333.299 138.5H313.299C312.475 136.147 314.161 193.501 303.299 203.5C288.02 217.568 265.438 223.986 233.438 220.986L209.938 214.986C198.938 226.319 178.069 250.416 168.938 278.486C161.764 300.54 154.299 334.189 167.799 338.5C181.299 342.812 193.799 331 206.299 323C218.799 315 235.799 303.5 235.799 303.5L231.799 283C217.632 290.5 189.299 304.8 189.299 302C189.299 299.2 190.966 295.5 191.799 294M250.926 247.806C249.317 245.006 245.129 240.167 243.3 238.001" stroke="black" stroke-width="1.9" stroke-linecap="round" stroke-linejoin="round"/>
</g>
<path id="Vector 3147-285" d="M192.818 301.413L213.063 245.425L200.003 273.552L189.562 301.413L192.818 301.413Z" fill="black"/>
<path id="Vector 3102-286" d="M214.299 243C214.299 243 200.799 266.5 191.299 295" stroke="black" stroke-width="1.9" stroke-linecap="round" stroke-linejoin="round"/>
</g>
<g id="hands">
<g id="object-hold-right" transform="translate(214.457 169.5)">

<g><svg xmlns="http://www.w3.org/2000/svg" width="144" height="169" viewBox="0 0 144 169" fill="none" class="injected-svg" data-src="/singaporean/object/hold-right/036-magnifying-glass.svg" xmlns:xlink="http://www.w3.org/1999/xlink">
<path d="M45.7347 90.2625C45.7347 90.2625 31.1433 114.094 23.954 125.27C20.0916 131.273 20.5338 130.194 19.9735 131.352C19.1345 133.086 16.9555 137.843 21.1502 139.884C25.3449 141.924 28.4111 136.668 29.9929 133.818C31.7432 130.663 29.8175 134.137 33.7885 126.435C35.536 123.045 38.4562 117.63 40.0599 114.478C43.4901 107.736 51.1919 92.2015 51.1919 92.2015L49.4167 91.3119L45.7347 90.2625Z" fill="#EF4444" stroke="black" stroke-width="1.9" stroke-linecap="round" stroke-linejoin="round"/>
<path fill-rule="evenodd" clip-rule="evenodd" d="M33.1086 80.0152C26.8775 64.7575 35.6873 45.8823 49.2589 41.0358C59.2618 37.4636 71.1907 38.9742 77.4841 44.1417C82.0125 47.3091 85.7171 51.7829 87.9695 57.2983C94.1976 72.5485 86.9717 90.0033 71.8192 96.2777C56.6667 102.552 39.3397 95.2729 33.1086 80.0152ZM40.4852 76.9565C35.93 65.8026 42.3703 52.0042 52.2916 48.4612C59.604 45.8498 68.3245 46.9541 72.9251 50.7317C76.2356 53.0472 78.9437 56.3177 80.5903 60.3496C85.1432 71.4981 79.8609 84.2581 68.7839 88.8449C57.7069 93.4317 45.0403 88.1104 40.4852 76.9565Z" fill="#EF4444"/>
<path d="M49.2589 41.0358L49.5784 41.9304L49.2589 41.0358ZM33.1086 80.0152L33.9881 79.6561L33.1086 80.0152ZM77.4841 44.1417L76.8812 44.8759C76.9001 44.8914 76.9195 44.9062 76.9396 44.9202L77.4841 44.1417ZM87.9695 57.2983L87.09 57.6575L87.9695 57.2983ZM71.8192 96.2777L72.1826 97.1554L71.8192 96.2777ZM52.2916 48.4612L52.6111 49.3558L52.2916 48.4612ZM40.4852 76.9565L39.6057 77.3156L40.4852 76.9565ZM72.9251 50.7317L72.3222 51.4659C72.3411 51.4815 72.3606 51.4962 72.3806 51.5102L72.9251 50.7317ZM80.5903 60.3496L81.4698 59.9905L80.5903 60.3496ZM48.9394 40.1411C41.8535 42.6716 36.0858 48.827 32.8855 56.245C29.6817 63.6709 29.0017 72.4717 32.2291 80.3744L33.9881 79.6561C30.9843 72.301 31.5937 64.0354 34.63 56.9976C37.6697 49.952 43.0928 44.2465 49.5784 41.9304L48.9394 40.1411ZM78.0869 43.4075C74.76 40.6757 70.0141 38.9589 64.8711 38.3676C59.7177 37.7751 54.0874 38.3027 48.9394 40.1411L49.5784 41.9304C54.4333 40.1967 59.7689 39.6935 64.6541 40.2552C69.5495 40.818 73.9148 42.4402 76.8812 44.8759L78.0869 43.4075ZM88.849 56.9391C86.5257 51.2503 82.7027 46.6325 78.0285 43.3633L76.9396 44.9202C81.3223 47.9857 84.9084 52.3155 87.09 57.6575L88.849 56.9391ZM72.1826 97.1554C87.8224 90.6793 95.273 72.6692 88.849 56.9391L87.09 57.6575C93.1221 72.4279 86.1209 89.3274 71.4557 95.4L72.1826 97.1554ZM32.2291 80.3744C38.6576 96.1154 56.5396 103.633 72.1826 97.1554L71.4557 95.4C56.7937 101.471 40.0218 94.4305 33.9881 79.6561L32.2291 80.3744ZM51.9721 47.5665C46.7113 49.4452 42.4486 54.0055 40.0874 59.4784C37.7228 64.9592 37.2163 71.4649 39.6057 77.3156L41.3646 76.5973C39.1989 71.2941 39.6349 65.3237 41.832 60.2311C44.0325 55.1305 47.9506 51.0202 52.6111 49.3558L51.9721 47.5665ZM73.528 49.9975C71.0474 47.9607 67.5268 46.6929 63.7338 46.2568C59.9304 45.8195 55.7749 46.2085 51.9721 47.5665L52.6111 49.3558C56.1207 48.1025 59.9816 47.7379 63.5168 48.1444C67.0622 48.552 70.2022 49.7251 72.3222 51.4659L73.528 49.9975ZM81.4698 59.9905C79.7524 55.7851 76.9258 52.3706 73.4696 49.9533L72.3806 51.5102C75.5454 53.7238 78.1351 56.8503 79.7108 60.7088L81.4698 59.9905ZM69.1473 89.7226C80.7116 84.9341 86.2187 71.6187 81.4698 59.9905L79.7108 60.7088C84.0678 71.3774 79.0101 83.5821 68.4204 87.9672L69.1473 89.7226ZM39.6057 77.3156C44.3582 88.9528 57.5798 94.5125 69.1473 89.7226L68.4204 87.9672C57.834 92.3508 45.7224 87.2679 41.3646 76.5973L39.6057 77.3156Z" fill="black"/>
<path d="M41.0537 100.471L47.7989 96.0558L44.5386 93.4521L41.0537 100.471Z" fill="black" stroke="black" stroke-width="1.9" stroke-linecap="round" stroke-linejoin="round"/>
</svg></g></g>
<g id="Vector 370">
<path d="M246.764 270.389C243.448 271.508 235.196 280.233 234.264 285.697C232.174 286.692 232.799 287 232.799 287L234.799 300C234.799 300 236.783 300.047 237.764 299.225C252.403 300.216 264.26 290.486 266.264 286.986C268.141 283.707 265.264 283.046 263.063 284.015C264.917 282.636 266.961 280.48 266.264 278.486C265.376 275.944 263.764 276.383 262.109 277.255C265.985 271.407 261.765 271.122 259.264 272.486C253.764 275.486 251.764 276.383 248.764 276.383C249.765 271.893 251.201 268.891 246.764 270.389Z" fill="#F5B896"/>
<path d="M262.109 277.255C263.764 276.383 265.376 275.944 266.264 278.486C267.134 280.974 263.737 283.714 261.765 284.883M262.109 277.255C265.985 271.407 261.765 271.122 259.264 272.486C253.764 275.486 251.764 276.383 248.764 276.383C249.765 271.893 251.201 268.891 246.764 270.389C243.448 271.508 235.196 280.233 234.264 285.697C232.174 286.692 232.799 287 232.799 287L234.799 300C234.799 300 236.783 300.047 237.764 299.225C252.403 300.216 264.26 290.486 266.264 286.986C268.555 282.985 263.765 282.882 261.765 284.883M262.109 277.255C258.765 280.383 253.002 282.631 248.764 282.883M261.765 284.883C259.793 286.053 253.931 288.986 250.764 288.986" stroke="black" stroke-width="1.9" stroke-linecap="round" stroke-linejoin="round"/>
</g>
<path id="Ellipse 15-287" d="M321.601 121.262C322.203 123.052 326.233 122.134 328.94 121.064C331.648 119.993 331.849 118.704 331.406 117.386C330.963 116.068 330.043 115.222 327.335 116.292C324.628 117.362 320.999 119.473 321.601 121.262Z" fill="#F5B896" stroke="black" stroke-width="1.9" stroke-linecap="round" stroke-linejoin="round"/>
<path id="Ellipse 16-288" d="M322.404 125.615C323.006 127.404 327.035 126.487 329.743 125.416C332.45 124.346 332.652 123.056 332.209 121.738C331.766 120.421 330.846 119.574 328.138 120.645C325.43 121.715 321.802 123.825 322.404 125.615Z" fill="#F5B896" stroke="black" stroke-width="1.9" stroke-linecap="round" stroke-linejoin="round"/>
</g>
<path id="Vector 358-289" d="M335.799 142.65V135.15C330.999 132.35 318.132 135.316 312.299 137.15V141.15C318.699 138.75 330.632 141.15 335.799 142.65Z" fill="white" stroke="black" stroke-width="1.9" stroke-linecap="round" stroke-linejoin="round"/>
<path id="Vector 359-290" d="M234.014 280.999L226.891 283.345C225.733 288.78 232.575 300.073 236.141 305.041L239.94 303.789C235.659 298.461 234.206 286.376 234.014 280.999Z" fill="white" stroke="black" stroke-width="1.9" stroke-linecap="round" stroke-linejoin="round"/>
<path id="Vector 3247-291" d="M189.388 334.086V340.314C189.388 340.314 202.799 330.5 211.799 324C220.799 317.5 233.298 305.788 233.298 305.788L189.388 334.086Z" fill="black"/>
</g>
</g>
</g>
</svg><svg xmlns="http://www.w3.org/2000/svg" width="500" height="700" viewBox="0 0 500 700" fill="none" class="injected-svg" data-src="/singaporean/head/004-permed-long-hair.svg" xmlns:xlink="http://www.w3.org/1999/xlink">
<path d="M261.224 191.057V152.557L240.815 145.241L219.631 152.557C219.631 163.557 215.121 167.223 214.119 169.557C210.277 166.723 202.193 163.957 200.589 171.557C198.985 179.157 204.125 183.571 208.468 184.071C211.675 201.271 211.614 212.39 209.609 216.557C213.618 224.557 227.649 223.223 234.164 221.557V209.057C261.024 209.857 261.224 200.057 261.224 191.057Z" fill="#F5B896" stroke="black" stroke-width="1.9" stroke-linejoin="round"/>
<path d="M233.663 209.057C230.152 208.897 224.384 207.856 222.828 204.972C222.762 204.83 222.699 204.692 222.638 204.557C222.692 204.699 222.755 204.838 222.828 204.972C225.261 210.267 230.539 220.278 233.663 221.057V209.057Z" fill="black"/>
<path d="M233.663 209.057C229.988 208.89 223.841 207.757 222.638 204.557C224.977 209.723 230.456 220.257 233.663 221.057V209.057Z" stroke="black" stroke-width="1.9" stroke-linecap="round" stroke-linejoin="round"/>
<path d="M200.456 171.711C198.576 178.464 206.411 182.215 210.327 183.466C210.327 189.817 211.914 208.968 208.916 217.399C208.626 218.215 208.647 227.851 203.007 227.851C184.679 205.811 183.725 126.782 225.834 130.908C235.234 124.813 270.012 130.907 261.082 160.451C254.812 154.812 254.249 153.688 251.433 149.194C241.861 161.554 213.706 170.543 213.706 170.543C208.916 165.487 202.336 164.959 200.456 171.711Z" fill="black" stroke="black" stroke-width="1.78189" stroke-linecap="round" stroke-linejoin="round"/>
<path d="M241.342 133.932C246.825 135.807 257.791 142.185 257.791 152.688" stroke="white" stroke-width="1.78189" stroke-linecap="round" stroke-linejoin="round"/>
<path d="M182.042 201.949C184.129 197.491 190.147 157.985 198.825 146.817C200.056 145.233 210.802 139.295 210.864 151.585C191.88 176.75 200.787 189.103 204.012 189.846C207.236 190.588 208.105 183.163 210.864 183.187C213.623 183.211 212.633 226.459 212.633 226.459C212.632 238.881 212.678 239.553 210.153 245.361C207.628 251.168 202.027 254.447 194.082 247.164C186.707 248.421 179.936 249.003 177.642 241.897C174.938 233.524 178.86 228.251 179.67 226.459C179.256 224.428 174.358 221.344 174.938 212.21C175.276 206.881 178.457 203.738 182.042 201.949Z" fill="black" stroke="black" stroke-width="1.40675" stroke-linecap="round" stroke-linejoin="round"/>
<path d="M185.983 208.386C184.422 210.35 182.236 215.21 185.983 218.933" stroke="white" stroke-width="1.78189" stroke-linecap="round" stroke-linejoin="round"/>
<path d="M203.752 240.208C205.508 238.466 208.19 233.932 204.861 229.736" stroke="white" stroke-width="1.78189" stroke-linecap="round" stroke-linejoin="round"/>
</svg><svg xmlns="http://www.w3.org/2000/svg" width="500" height="700" viewBox="0 0 500 700" fill="none" class="injected-svg" data-src="/singaporean/eyes/005-in-love.svg" xmlns:xlink="http://www.w3.org/1999/xlink">
<path d="M238.194 168.144C234.314 163.154 230.896 166.138 230.176 169.633" stroke="black" stroke-width="1.5" stroke-linecap="round" stroke-linejoin="round"/>
<path d="M249.869 166.801C251.917 161.117 257.385 164.442 257.385 167.301" stroke="black" stroke-width="1.5" stroke-linecap="round" stroke-linejoin="round"/>
<g clip-path="url(#clip0_7144_71827-292)">
<path d="M237.95 172.925C237.304 172.283 236.848 172.121 236.193 172.194C234.833 172.346 234.524 173.852 234.524 174.51C234.524 173.877 234.106 172.317 232.855 172.194C232.2 172.13 231.484 172.36 230.932 172.925C230.379 173.49 229.529 175.398 231.097 176.432C232.22 177.172 233.493 178.607 234.125 179.361C234.332 179.609 234.719 179.612 234.927 179.365C235.594 178.58 236.952 177.056 237.951 176.432C239.325 175.573 238.597 173.567 237.95 172.925Z" fill="#EF4444" stroke="black" stroke-width="1.2"/>
</g>
<g clip-path="url(#clip1_7144_71827-293)">
<path d="M257.054 172.925C256.407 172.283 255.951 172.121 255.296 172.194C253.936 172.346 253.627 173.852 253.627 174.51C253.627 173.877 253.21 172.317 251.959 172.194C251.303 172.13 250.587 172.36 250.035 172.925C249.483 173.49 248.632 175.398 250.2 176.432C251.323 177.172 252.596 178.607 253.228 179.361C253.435 179.609 253.822 179.612 254.031 179.365C254.698 178.58 256.056 177.056 257.054 176.432C258.428 175.573 257.7 173.567 257.054 172.925Z" fill="#EF4444" stroke="black" stroke-width="1.2"/>
</g>
<path d="M239.244 179.528C240.05 176.887 242.85 175.398 245.498 176.203C248.145 177.008 249.638 179.802 248.831 182.443C248.353 184.008 247.176 185.168 245.745 185.687" stroke="black" stroke-width="1.5" stroke-linecap="round" stroke-linejoin="round"/>
<defs>
<clipPath id="clip0_7144_71827-292">
<rect width="10.0224" height="10" fill="white" transform="translate(229.513 170.929)"/>
</clipPath>
<clipPath id="clip1_7144_71827-293">
<rect width="10.0224" height="10" fill="white" transform="translate(248.616 170.929)"/>
</clipPath>
</defs>
</svg><svg xmlns="http://www.w3.org/2000/svg" width="500" height="700" viewBox="0 0 500 700" fill="none" class="injected-svg" data-src="/singaporean/mouth/006-shocked.svg" xmlns:xlink="http://www.w3.org/1999/xlink">
<ellipse cx="1.50336" cy="1.5" rx="1.50336" ry="1.5" transform="matrix(-1 0 0 1 245.548 192)" fill="black"/>
</svg><svg xmlns="http://www.w3.org/2000/svg" width="0" height="0" viewBox="0 0 0 0" fill="none" class="injected-svg" data-src="/singaporean/accessory/001-none.svg" xmlns:xlink="http://www.w3.org/1999/xlink">
</svg></g>
<g id="singaporean-box-3" transform="matrix(-0.986587 0.163238 0.163238 0.986587 545.938 73.1284) scale(1.00)" style="--color-illustration-primary: #3A3E46; --color-illustration-secondary: #D1D5DB; --color-illustration-accent: #EF4444; --color-illustration-skin: #F5B896;">

<svg xmlns="http://www.w3.org/2000/svg" width="500" height="700" viewBox="0 0 500 700" fill="none" class="injected-svg" data-src="/singaporean/lower/005-strolling.svg" xmlns:xlink="http://www.w3.org/1999/xlink">
<path d="M288.392 614.877C282.909 615.318 273.151 609.62 266.449 604.417L246.401 606.03L249.316 625.243C255.444 624.565 270.989 623.5 284.141 624.665C300.58 626.12 295.978 614.267 288.392 614.877Z" fill="#3A3E46" stroke="black" stroke-width="1.9" stroke-linecap="round" stroke-linejoin="round"/>
<path d="M172.312 612.042C168.08 607.565 170.164 599.279 169.043 589.937L153.571 573.57L142.1 589.061C146.961 593.94 157.234 621.774 167.932 622.658C184.483 624.027 178.166 618.235 172.312 612.042Z" fill="#3A3E46" stroke="black" stroke-width="1.9" stroke-linecap="round" stroke-linejoin="round"/>
<path d="M201.628 348.081C193.581 353.372 184.08 377.853 189.558 403.638C193.126 420.435 195.938 449.714 189.558 472.689C183.543 494.349 166.179 536.994 148.998 575.4L179.761 598.235C179.761 598.235 213.699 496.758 223.255 481.486C229.686 471.207 233.695 452.46 236.952 433.364C236.075 447.784 233.84 467.24 236.349 481.486C240.65 505.9 240.163 606.263 240.163 606.263H277.102C273.581 600.594 270.98 470.838 270.98 464.032C270.98 447.123 272.809 372.587 260.739 339.328C260.739 339.328 246.164 334.701 229.064 337.272C211.964 339.842 201.628 348.081 201.628 348.081Z" fill="#D1D5DB"/>
<path d="M241.36 406.215C237.018 432.243 232.81 466.214 223.255 481.486C213.699 496.758 179.761 598.235 179.761 598.235L148.998 575.4C166.179 536.994 183.543 494.349 189.558 472.689C195.938 449.714 193.126 420.435 189.558 403.638C184.08 377.853 193.581 353.372 201.628 348.081C201.628 348.081 211.964 339.842 229.064 337.272C246.164 334.701 260.739 339.328 260.739 339.328C272.809 372.587 270.98 447.123 270.98 464.032C270.98 470.838 273.581 600.594 277.102 606.263H240.163C240.163 606.263 240.65 505.9 236.349 481.486C233.774 466.868 236.196 446.763 237.018 432.243C239.08 420.631 241.36 406.215 241.36 406.215ZM241.36 406.215C242.422 398.023 244.646 380.208 245.047 374.482" stroke="black" stroke-width="1.9" stroke-linecap="round" stroke-linejoin="round"/>
<path d="M223.499 365.123C221.494 374.464 213.877 391.395 199.445 384.389" stroke="black" stroke-width="1.9" stroke-linecap="round" stroke-linejoin="round"/>
</svg><svg xmlns="http://www.w3.org/2000/svg" width="500" height="700" viewBox="0 0 500 700" fill="none" class="injected-svg" data-src="/singaporean/upper/templated-048-on-table-typing.svg" xmlns:xlink="http://www.w3.org/1999/xlink">
<g id="templated-048 - on-table typing">
<g id="NEW your singaporean">
<g id="upper body">
<g id="clothing">
<g id="Vector 40">
<path d="M209.938 214.984L233.438 220.984C242.687 226.724 264.039 243.817 275.453 266.276C270.909 267.349 262.158 270.394 263.504 273.99C274.14 301.421 277.938 328.99 278.438 345.484C258.799 345.484 243.828 347.917 223.799 350.999C204.299 353.999 196.271 348.984 187.438 346.984C197.037 341.784 199.938 307.651 199.938 286.984C193.938 283.484 178.938 280.984 168.938 278.484C175.338 254.884 198.938 226.318 209.938 214.984Z" fill="#3A3E46"/>
<path d="M199.938 286.984C193.938 283.484 178.938 280.984 168.938 278.484C175.338 254.884 198.938 226.318 209.938 214.984L233.438 220.984C242.687 226.724 264.039 243.817 275.453 266.276C270.909 267.349 262.158 270.394 263.504 273.99M199.938 286.984C199.938 307.651 197.038 341.784 187.438 346.984C196.271 348.984 204.299 353.999 223.799 350.999C243.828 347.917 258.799 345.484 278.438 345.484C277.938 328.99 274.14 301.421 263.504 273.99M199.938 286.984L209.938 291.984C209.938 273.499 209.938 256.999 211.938 242.484M243.299 237.999C245.129 240.165 248.828 244.184 250.438 246.984C255.643 255.693 259.954 264.834 263.504 273.99" stroke="black" stroke-width="1.9" stroke-linecap="round" stroke-linejoin="round"/>
</g>
<path id="Vector 63-294" d="M273.937 345.484C279.137 330.284 270.103 299.651 266.937 283.984C272.137 299.584 277.77 329.318 278.937 345.484H273.937Z" fill="black" stroke="black" stroke-width="1.9" stroke-linecap="round" stroke-linejoin="round"/>
<g id="object-on-table" transform="translate(195.938 188.764)">

<g><svg xmlns="http://www.w3.org/2000/svg" width="211" height="171" viewBox="0 0 211 171" fill="none" class="injected-svg" data-src="/singaporean/object/on-table/072-laptop.svg" xmlns:xlink="http://www.w3.org/1999/xlink">
<path d="M98.311 94.5884L109.311 44.6143L209.673 1.11426L190.173 94.5884L87.311 143.114L5.81104 131.088L27.6729 122.153L83.1729 94.5884H98.311Z" fill="white"/>
<path d="M98.311 94.5884L109.311 44.6143L209.673 1.11426L190.173 94.5884L87.311 143.114L5.81104 131.088L27.6729 122.153L83.1729 94.5884H98.311ZM98.311 94.5884L90.811 134.088" stroke="black" stroke-width="1.9" stroke-linecap="round" stroke-linejoin="round"/>
<ellipse cx="154.666" cy="68.1143" rx="7.04866" ry="7.9811" transform="rotate(17.0913 154.666 68.1143)" fill="#EF4444" stroke="black" stroke-width="1.9" stroke-linecap="round" stroke-linejoin="round"/>
</svg></g></g>
<g id="Vector 46">
<path d="M289.576 285.095C285.63 282.355 284.946 269.929 279.233 267.534C257.022 262.902 259.601 289.849 256.444 292.753L255.937 293C256.122 292.979 256.29 292.895 256.444 292.753L272.183 285.095C272.959 288.739 274.355 289.625 275.134 289.92C277.262 290.725 278.879 288.657 279.209 287.91C278.896 288.833 281.66 290.251 283.333 289.576C285.041 288.886 284.946 287.87 284.946 286.491C288.021 289.249 290.984 286.072 289.576 285.095Z" fill="#F5B896"/>
<path d="M284.946 286.491C288.021 289.249 290.984 286.072 289.576 285.095C285.63 282.355 284.946 269.929 279.233 267.534C255.937 262.676 259.912 292.559 255.937 293L272.183 285.095M284.946 286.491C284.946 287.87 285.041 288.886 283.333 289.576C281.625 290.265 278.778 288.771 279.233 287.852M284.946 286.491C284.946 286.491 281.283 284.078 281.283 278.564M279.233 287.852C278.967 288.541 277.32 290.747 275.134 289.92C274.015 289.497 271.623 287.852 271.623 278.564C271.185 277.994 259.937 289.92 266.437 276.5M279.233 287.852C279.233 287.852 276.064 285.095 276.748 278.564" stroke="black" stroke-width="1.9" stroke-linecap="round" stroke-linejoin="round"/>
</g>
<path id="Vector 42-295" d="M169.299 278.5C172.799 284.5 185.799 305.5 209.799 292.023C196.799 284 178.799 278 169.299 278.5Z" fill="black" stroke="black" stroke-width="1.9" stroke-linecap="round" stroke-linejoin="round"/>
</g>
<g id="hands">
<g id="Vector 45">
<path d="M256.299 290.5C256.299 287 248.937 283.187 243.437 282.5C228.709 280.659 203.257 295.905 197.437 296.545C196.799 296.831 195.467 294.68 198.937 288.485C190.537 284.485 176.437 279.307 171.937 278.974C167.937 284.474 151.799 327.5 163.799 334C181.799 341.5 228.799 293.989 232.299 298.5C232.299 311.974 235.799 314.359 237.437 314.974C240.637 316.174 243.299 313.5 242.799 312C243.299 313.5 246.937 315.474 249.437 314.474C251.937 313.474 252.798 311.973 251.299 310C255.799 314 260.635 309.391 258.576 307.974C253.216 304.286 252.087 294.971 249.955 291.258C252.758 295.082 256.299 295.567 256.299 290.5Z" fill="#F5B896"/>
<path d="M251.299 310C255.799 314 260.635 309.391 258.576 307.974C252.799 304 251.937 293.488 249.437 290.5C252.299 295 256.299 295.885 256.299 290.5C256.299 287 248.937 283.187 243.437 282.5C228.709 280.659 203.257 295.905 197.437 296.545M251.299 310C252.798 311.973 251.937 313.474 249.437 314.474C246.937 315.474 243.299 313.5 242.799 312M251.299 310C251.299 310 246.437 306.5 246.437 298.5M242.799 312C243.299 313.5 240.637 316.174 237.437 314.974C235.799 314.359 232.299 311.974 232.299 298.5C228.799 293.989 181.799 341.5 163.799 334C151.799 327.5 167.937 284.474 171.937 278.974C176.437 279.307 190.537 284.485 198.937 288.485C195.467 294.68 196.799 296.831 197.437 296.545M242.799 312C242.799 312 238.799 307.974 239.799 298.5M171.937 307.974L197.437 296.545" stroke="black" stroke-width="1.9" stroke-linecap="round" stroke-linejoin="round"/>
</g>
</g>
</g>
</g>
</g>
</svg><svg xmlns="http://www.w3.org/2000/svg" width="500" height="700" viewBox="0 0 500 700" fill="none" class="injected-svg" data-src="/singaporean/head/039-high-slope.svg" xmlns:xlink="http://www.w3.org/1999/xlink">
<path d="M261.289 191.021V152.521C261.289 152.521 257.28 132.509 232.725 132.009C208.17 131.509 205.665 151.509 205.665 151.509C205.665 161.086 208.703 166.464 212.466 169.379C208.321 166.891 202.046 164.924 200.654 171.521C199.05 179.121 207.335 183.021 211.678 183.521C214.885 200.721 211.678 212.354 209.674 216.521C213.683 224.521 227.714 223.188 234.228 221.521V209.021C261.088 209.821 261.289 200.021 261.289 191.021Z" fill="#F5B896" stroke="black" stroke-width="1.9" stroke-linejoin="round"/>
<path d="M233.663 209.057C230.152 208.897 224.384 207.856 222.828 204.972C222.762 204.83 222.699 204.692 222.638 204.557C222.692 204.699 222.755 204.838 222.828 204.972C225.261 210.267 230.539 220.278 233.663 221.057V209.057Z" fill="black" stroke="black" stroke-width="1.9" stroke-linecap="round" stroke-linejoin="round"/>
<path d="M255.021 141.574C256.482 142.387 257.617 141.536 262.864 150.396C267.855 158.825 262.934 164.344 261.918 170.365C261.142 174.967 260.226 153.609 255.021 147.386C241.144 150.396 235.111 147.386 218.821 153.406C214.598 160.63 215.734 175.258 214.598 176.884C214.598 176.884 209.168 164.243 204.341 166.65C201.643 167.997 205.548 166.649 201.928 155.212C201.928 134.143 243.096 121.834 255.021 141.574Z" fill="black" stroke="black" stroke-width="1.50728" stroke-linecap="round" stroke-linejoin="round"/>
<path d="M207.762 164.242L206.778 165.269" stroke="#A0A4AD" stroke-width="1.90922" stroke-linecap="round" stroke-linejoin="round"/>
<path d="M209.966 158.222L209.783 159.631" stroke="#838894" stroke-width="1.90922" stroke-linecap="round" stroke-linejoin="round"/>
<path d="M204.702 158.222L205.282 159.52" stroke="#838894" stroke-width="1.90922" stroke-linecap="round" stroke-linejoin="round"/>
<path d="M215.458 155.814L216.175 157.042" stroke="#3A3E46" stroke-width="1.90922" stroke-linecap="round" stroke-linejoin="round"/>
<path d="M206.755 153.535L207.883 154.402" stroke="#3A3E46" stroke-width="1.90922" stroke-linecap="round" stroke-linejoin="round"/>
<path d="M210.766 166.649L211.303 167.965" stroke="#BFC2C8" stroke-width="1.90922" stroke-linecap="round" stroke-linejoin="round"/>
<path d="M213.544 170.262L213.454 171.68" stroke="#BFC2C8" stroke-width="1.90922" stroke-linecap="round" stroke-linejoin="round"/>
<path d="M213.736 164.242L213.131 165.528" stroke="#A0A4AD" stroke-width="1.90922" stroke-linecap="round" stroke-linejoin="round"/>
</svg><svg xmlns="http://www.w3.org/2000/svg" width="500" height="700" viewBox="0 0 500 700" fill="none" class="injected-svg" data-src="/singaporean/eyes/018-shook.svg" xmlns:xlink="http://www.w3.org/1999/xlink">
<ellipse cx="235.93" cy="176.221" rx="3.60595" ry="3.5979" fill="white" stroke="black" stroke-width="1.5" stroke-linecap="round" stroke-linejoin="round"/>
<ellipse cx="252.063" cy="176.011" rx="3.60595" ry="3.5979" fill="white" stroke="black" stroke-width="1.5" stroke-linecap="round" stroke-linejoin="round"/>
<ellipse cx="1.00224" cy="1" rx="1.00224" ry="1" transform="matrix(-1 0 0 1 236.932 175.221)" fill="black"/>
<ellipse cx="1.00224" cy="1" rx="1.00224" ry="1" transform="matrix(-1 0 0 1 252.815 175.011)" fill="black"/>
<path d="M236.528 166.011C232.649 161.021 229.231 164.005 228.51 167.501" stroke="black" stroke-width="1.5" stroke-linecap="round" stroke-linejoin="round"/>
<path d="M249.056 165C251.105 159.315 256.573 162.64 256.573 165.5" stroke="black" stroke-width="1.5" stroke-linecap="round" stroke-linejoin="round"/>
<path d="M239.244 179.528C240.05 176.887 242.85 175.398 245.498 176.203C248.145 177.008 249.638 179.802 248.831 182.443C248.353 184.008 247.176 185.168 245.745 185.687" stroke="black" stroke-width="1.5" stroke-linecap="round" stroke-linejoin="round"/>
</svg><svg xmlns="http://www.w3.org/2000/svg" width="500" height="700" viewBox="0 0 500 700" fill="none" class="injected-svg" data-src="/singaporean/mouth/003-grin.svg" xmlns:xlink="http://www.w3.org/1999/xlink">
<path d="M231.911 192.043C231.568 190.548 232.082 188.33 234.59 189.467C239.028 191.479 242.45 192.858 247.106 192.043C248.976 191.716 250.321 194.528 248.415 196.545C246.109 198.986 232.943 196.545 231.911 192.043Z" fill="white" stroke="black" stroke-width="1.4"/>
<path d="M236.979 191.024L235.422 195.081" stroke="black"/>
<path d="M240.692 192.341L239.774 196.191" stroke="black"/>
<line y1="-0.5" x2="4.27574" y2="-0.5" transform="matrix(-0.0294309 0.999567 -0.999626 -0.0273381 243.964 192.615)" stroke="black"/>
</svg><svg xmlns="http://www.w3.org/2000/svg" width="500" height="700" viewBox="0 0 500 700" fill="none" class="injected-svg" data-src="/singaporean/accessory/011-wrinkles.svg" xmlns:xlink="http://www.w3.org/1999/xlink">
<path d="M257.741 175.221C256.962 175.335 255.988 175.564 255.403 175.907C255.71 176.148 256.608 176.696 257.741 176.957" stroke="black" stroke-opacity="0.4" stroke-linecap="round" stroke-linejoin="round"/>
<path d="M239.535 163.441C243.856 164.151 247.553 163.441 247.553 163.441" stroke="black" stroke-opacity="0.4" stroke-linecap="round"/>
<path d="M228.344 175.221C229.123 175.335 230.097 175.564 230.682 175.907C230.375 176.148 229.477 176.696 228.344 176.957" stroke="black" stroke-opacity="0.4" stroke-linecap="round" stroke-linejoin="round"/>
<path d="M240.258 165.52C242.695 166.158 246.679 165.52 246.679 165.52" stroke="black" stroke-opacity="0.4" stroke-linecap="round"/>
<path d="M237.539 184.83C236.524 185.843 234.494 188.172 234.494 189.388" stroke="black" stroke-opacity="0.4" stroke-linecap="round" stroke-linejoin="round"/>
<path d="M249.479 184.83C249.986 185.336 251.154 186.957 251.763 189.388" stroke="black" stroke-opacity="0.4" stroke-linecap="round" stroke-linejoin="round"/>
</svg></g>
<path id="Vector 3240-257" d="M708.284 469.059L106.115 407.13L-10.0357 398.723L-18.9351 709.936L708.284 724.099L708.284 469.059Z" fill="white"/>
<path id="Vector 3232-258" d="M112.745 407.479L577.8 456.23" stroke="black" stroke-width="1.9" stroke-linecap="round" stroke-linejoin="round"/>
<path id="Vector 3233-259" d="M269.818 451.104L311.901 427.62L367.253 434.372L348.427 467.053L269.818 451.104Z" fill="#E9EAEE" stroke="black" stroke-width="1.9" stroke-linecap="round" stroke-linejoin="round"/>
<path id="Vector 3234-260" d="M170.047 438.933L212.13 415.449L267.482 422.201L236.016 455.671L170.047 438.933Z" fill="#E9EAEE" stroke="black" stroke-width="1.9" stroke-linecap="round" stroke-linejoin="round"/>
<path id="Vector 3235-261" d="M328.504 458.263L293.301 425.351L237.949 418.599L248.366 454.847L328.504 458.263Z" fill="#D1D5DB" stroke="black" stroke-width="1.9" stroke-linecap="round" stroke-linejoin="round"/>
<path id="Vector 3236-262" d="M257.229 445.479C258.371 443.755 261.405 440.717 264.399 442.36C267.394 444.003 274.305 444.101 277.386 443.944L300.451 444.761" stroke="black" stroke-width="1.9" stroke-linecap="round" stroke-linejoin="round"/>
<path id="Vector 3237-263" d="M197.025 431.095C198.535 429.681 202.188 427.426 204.722 429.717C207.256 432.008 213.957 433.699 216.991 434.259L239.243 440.383" stroke="black" stroke-width="1.9" stroke-linecap="round" stroke-linejoin="round"/>
<path id="Vector 3238-264" d="M316.106 434.29L347.195 438.082" stroke="black" stroke-width="1.9" stroke-linecap="round" stroke-linejoin="round"/>
<path id="Vector 3239-265" d="M314.715 439.623L345.804 443.416" stroke="black" stroke-width="1.9" stroke-linecap="round" stroke-linejoin="round"/>
</g>
<defs>
<clipPath id="clip0_7680_151777-256">
<rect width="698.72" height="698.72" fill="white"/>
</clipPath>
</defs>
</svg>