<svg xmlns="http://www.w3.org/2000/svg" width="962" height="846" viewBox="0 0 962 846" fill="none" class="injected-svg" data-src="/scenes/2/templated-220-office-lunch.svg" xmlns:xlink="http://www.w3.org/1999/xlink" role="img" style="width: 100%; height: 100%; max-width: 100%; max-height: 100%; position: absolute; top: 0; left: 0; right: 0; bottom: 0; z-index: 0;" id="scene">
<g id="templated-220 - office lunch" clip-path="url(#clip0_7680_148889-7242)">
<g id="window blinds" opacity="0.1">
<g id="Group">
<path id="Vector-7243" d="M369.443 62.7695H50.7334V333.323H369.443V62.7695Z" fill="#64748B"/>
<path id="Vector_2-7244" d="M369.443 333.324H50.7334V337.888H369.443V333.324Z" fill="#94A3B8"/>
<path id="Vector_3-7245" d="M358.466 71.668H61.7021V324.431H358.466V71.668Z" fill="#F1F5F9"/>
<path id="Vector_4-7246" opacity="0.2" d="M358.466 142.969V185.948L177.683 71.668H245.651L358.466 142.969Z" fill="#FFFDFC"/>
<path id="Vector_5-7247" opacity="0.2" d="M358.466 202.049V225.399L115.296 71.668H152.21L358.466 202.049Z" fill="#FFFDFC"/>
<path id="Vector_6-7248" opacity="0.2" d="M358.466 248.264V324.431H298.919L61.7021 174.479V71.668H79.1023L358.466 248.264Z" fill="#FFFDFC"/>
<path id="Vector_7-7249" d="M220.714 331.019L220.714 65.0742H199.458L199.458 331.019H220.714Z" fill="#64748B"/>
</g>
<g id="Group_2">
<g id="Group_3">
<path id="Vector_8-7250" d="M375.119 195.012H45.05C43.9643 195.012 43.085 194.133 43.085 193.047C43.085 191.961 43.9643 191.082 45.05 191.082H375.119C376.204 191.082 377.084 191.961 377.084 193.047C377.084 194.131 376.204 195.012 375.119 195.012Z" fill="#94A3B8"/>
<path id="Vector_9-7251" d="M375.119 64.7367H45.05C43.9643 64.7367 43.085 63.8573 43.085 62.7716C43.085 61.686 43.9643 60.8066 45.05 60.8066H375.119C376.204 60.8066 377.084 61.686 377.084 62.7716C377.084 63.8559 376.204 64.7367 375.119 64.7367Z" fill="#94A3B8"/>
<path id="Vector_10-7252" d="M375.119 72.8792H45.05C43.9643 72.8792 43.085 71.9999 43.085 70.9142C43.085 69.8286 43.9643 68.9492 45.05 68.9492H375.119C376.204 68.9492 377.084 69.8286 377.084 70.9142C377.084 71.9985 376.204 72.8792 375.119 72.8792Z" fill="#94A3B8"/>
<path id="Vector_11-7253" d="M375.119 81.0199H45.05C43.9643 81.0199 43.085 80.1405 43.085 79.0549C43.085 77.9692 43.9643 77.0898 45.05 77.0898H375.119C376.204 77.0898 377.084 77.9692 377.084 79.0549C377.084 80.1391 376.204 81.0199 375.119 81.0199Z" fill="#94A3B8"/>
<path id="Vector_12-7254" d="M375.119 89.1644H45.05C43.9643 89.1644 43.085 88.285 43.085 87.1994C43.085 86.1137 43.9643 85.2344 45.05 85.2344H375.119C376.204 85.2344 377.084 86.1137 377.084 87.1994C377.084 88.2837 376.204 89.1644 375.119 89.1644Z" fill="#94A3B8"/>
<path id="Vector_13-7255" d="M375.119 97.305H45.05C43.9643 97.305 43.085 96.4256 43.085 95.34C43.085 94.2544 43.9643 93.375 45.05 93.375H375.119C376.204 93.375 377.084 94.2544 377.084 95.34C377.084 96.4243 376.204 97.305 375.119 97.305Z" fill="#94A3B8"/>
<path id="Vector_14-7256" d="M375.119 105.45H45.05C43.9643 105.45 43.085 104.57 43.085 103.485C43.085 102.399 43.9643 101.52 45.05 101.52H375.119C376.204 101.52 377.084 102.399 377.084 103.485C377.084 104.569 376.204 105.45 375.119 105.45Z" fill="#94A3B8"/>
<path id="Vector_15-7257" d="M375.119 113.59H45.05C43.9643 113.59 43.085 112.711 43.085 111.625C43.085 110.54 43.9643 109.66 45.05 109.66H375.119C376.204 109.66 377.084 110.54 377.084 111.625C377.084 112.709 376.204 113.59 375.119 113.59Z" fill="#94A3B8"/>
<path id="Vector_16-7258" d="M375.119 121.733H45.05C43.9643 121.733 43.085 120.853 43.085 119.768C43.085 118.682 43.9643 117.803 45.05 117.803H375.119C376.204 117.803 377.084 118.682 377.084 119.768C377.084 120.852 376.204 121.733 375.119 121.733Z" fill="#94A3B8"/>
<path id="Vector_17-7259" d="M375.119 129.875H45.05C43.9643 129.875 43.085 128.996 43.085 127.91C43.085 126.825 43.9643 125.945 45.05 125.945H375.119C376.204 125.945 377.084 126.825 377.084 127.91C377.084 128.995 376.204 129.875 375.119 129.875Z" fill="#94A3B8"/>
<path id="Vector_18-7260" d="M375.119 138.016H45.05C43.9643 138.016 43.085 137.137 43.085 136.051C43.085 134.965 43.9643 134.086 45.05 134.086H375.119C376.204 134.086 377.084 134.965 377.084 136.051C377.084 137.135 376.204 138.016 375.119 138.016Z" fill="#94A3B8"/>
<path id="Vector_19-7261" d="M375.119 146.161H45.05C43.9643 146.161 43.085 145.281 43.085 144.195C43.085 143.11 43.9643 142.23 45.05 142.23H375.119C376.204 142.23 377.084 143.11 377.084 144.195C377.084 145.28 376.204 146.161 375.119 146.161Z" fill="#94A3B8"/>
<path id="Vector_20-7262" d="M375.119 154.301H45.05C43.9643 154.301 43.085 153.422 43.085 152.336C43.085 151.25 43.9643 150.371 45.05 150.371H375.119C376.204 150.371 377.084 151.25 377.084 152.336C377.084 153.42 376.204 154.301 375.119 154.301Z" fill="#94A3B8"/>
<path id="Vector_21-7263" d="M375.119 162.446H45.05C43.9643 162.446 43.085 161.566 43.085 160.481C43.085 159.395 43.9643 158.516 45.05 158.516H375.119C376.204 158.516 377.084 159.395 377.084 160.481C377.084 161.565 376.204 162.446 375.119 162.446Z" fill="#94A3B8"/>
<path id="Vector_22-7264" d="M375.119 170.586H45.05C43.9643 170.586 43.085 169.707 43.085 168.621C43.085 167.536 43.9643 166.656 45.05 166.656H375.119C376.204 166.656 377.084 167.536 377.084 168.621C377.084 169.706 376.204 170.586 375.119 170.586Z" fill="#94A3B8"/>
<path id="Vector_23-7265" d="M375.119 178.729H45.05C43.9643 178.729 43.085 177.85 43.085 176.764C43.085 175.678 43.9643 174.799 45.05 174.799H375.119C376.204 174.799 377.084 175.678 377.084 176.764C377.084 177.848 376.204 178.729 375.119 178.729Z" fill="#94A3B8"/>
<path id="Vector_24-7266" d="M375.119 186.871H45.05C43.9643 186.871 43.085 185.992 43.085 184.906C43.085 183.821 43.9643 182.941 45.05 182.941H375.119C376.204 182.941 377.084 183.821 377.084 184.906C377.084 185.99 376.204 186.871 375.119 186.871Z" fill="#94A3B8"/>
</g>
<path id="Vector_25-7267" d="M374.782 54.2755H45.3879C44.1163 54.2755 43.085 53.2441 43.085 51.9725V48.717C43.085 47.4454 44.1163 46.4141 45.3879 46.4141H374.782C376.054 46.4141 377.085 47.4454 377.085 48.717V51.9725C377.084 53.2441 376.054 54.2755 374.782 54.2755Z" fill="#94A3B8"/>
<path id="Vector_26-7268" d="M353.71 54.2754H351.448V202.023H353.71V54.2754Z" fill="#94A3B8"/>
<path id="Vector_27-7269" d="M353.576 210.674H351.58C350.709 210.674 350.003 209.968 350.003 209.097V201.565C350.003 200.694 350.709 199.988 351.58 199.988H353.576C354.447 199.988 355.153 200.694 355.153 201.565V209.097C355.153 209.968 354.447 210.674 353.576 210.674Z" fill="#94A3B8"/>
</g>
</g>
<g id="singaporean-box-1" transform="translate(164.671 146.074) scale(1.00)" style="--color-illustration-primary: #3A3E46; --color-illustration-secondary: #D1D5DB; --color-illustration-accent: #EF4444; --color-illustration-skin: #F5B896;">

<svg xmlns="http://www.w3.org/2000/svg" width="500" height="700" viewBox="0 0 500 700" fill="none" class="injected-svg" data-src="/singaporean/lower/029-office-skirt-heels.svg" xmlns:xlink="http://www.w3.org/1999/xlink">
<path d="M195.333 611.439C185.611 608.745 179.513 595.16 176.274 587.038L162.141 576.661L149.278 593.461C150.621 594.253 150.52 594.63 153.156 596.308C154.371 597.082 159.489 593.732 160.879 594.64C164.316 601.045 175.646 611.886 184.484 614.336C200.343 618.732 207.292 614.753 195.333 611.439Z" fill="#3A3E46" stroke="black" stroke-width="1.9" stroke-linecap="round" stroke-linejoin="round"/>
<path d="M195.333 464.872C195.446 492.739 173.951 554.686 159.643 581.39C159.643 581.39 158.589 586.661 172.087 598.106C185.585 609.552 193.265 611.504 188.244 607.003C183.223 602.503 176.601 588.688 176.601 588.688C191.423 562.845 210.193 518.428 217.843 492.863C221.401 480.975 221.283 481.488 221.63 473.979L195.333 464.872Z" fill="#F5B896" stroke="black" stroke-width="1.9" stroke-linecap="round" stroke-linejoin="round"/>
<path d="M293.126 611.865C287.767 610.614 270.978 604.459 264.258 599.485L247.509 599.166L245.432 621.272C246.926 621.137 247.033 621.52 250.028 621.36C251.409 621.286 253.908 615.336 255.499 615.271C261.519 618.661 277.402 620.069 285.719 620.89C301.993 622.495 305.236 614.692 293.126 611.865Z" fill="#3A3E46" stroke="black" stroke-width="1.9" stroke-linecap="round" stroke-linejoin="round"/>
<path d="M195.504 481.384L221.198 476.473C213.125 473.192 194.974 467.28 196.266 468.706C197.558 470.133 195.916 477.686 195.504 481.384Z" fill="black" stroke="black" stroke-width="1.9" stroke-linecap="round" stroke-linejoin="round"/>
<path d="M241.374 464.482C249.003 486.343 249.307 565.342 247.972 599.393C241.747 611.547 304.116 618.413 290.99 611.305C285.026 608.076 267.902 602.038 263.573 597.282C262.111 568.826 269.059 512.179 269.606 477.913C269.709 471.446 269.494 470.22 269.368 461.561L241.374 464.482Z" fill="#F5B896" stroke="black" stroke-width="1.9" stroke-linecap="round" stroke-linejoin="round"/>
<path d="M246.683 481.552L269.833 467.666L243.43 471.026L246.683 481.552Z" fill="black" stroke="black" stroke-width="1.9" stroke-linecap="round" stroke-linejoin="round"/>
<path d="M175.684 461.977C211.594 371.343 189.342 357.153 202.819 344.208L264.964 345.389C273.935 365.47 279.878 443.961 281.145 474.464C271.28 474.277 255.88 466.409 232.809 473.545C215.856 478.789 183.463 465.732 175.684 461.977Z" fill="#D1D5DB" stroke="black" stroke-width="1.9" stroke-linecap="round" stroke-linejoin="round"/>
<path d="M225.284 351.834C224.602 360.225 219.803 375.886 206.062 371.407" stroke="black" stroke-width="1.9" stroke-linecap="round" stroke-linejoin="round"/>
</svg><svg xmlns="http://www.w3.org/2000/svg" width="500" height="700" viewBox="0 0 500 700" fill="none" class="injected-svg" data-src="/singaporean/upper/templated-066-hold-left-office-lady.svg" xmlns:xlink="http://www.w3.org/1999/xlink">
<g id="templated-066 - hold-left office lady">
<g id="NEW your singaporean">
<g id="upper body">
<g id="clothing">
<path id="left hand-7340" d="M293.146 292.499C293.146 292.499 250.839 223.085 233.975 220.17C217.112 217.254 255.02 276.236 253.031 281.189C253.031 281.189 275.424 307.426 283.352 308.499C291.279 309.573 333.687 309.203 356.463 296.655C358.515 295.735 359.325 293.648 359.877 291.36C361.458 290.228 361.296 288.235 360.445 287.301C361.551 285.204 360.392 283.292 359.549 282.014C357.669 279.161 352.114 280.036 348.402 281.188C345.68 271.259 335.501 271.157 337.812 273.97C342.573 279.765 341.414 284.336 341.414 284.336C341.414 284.336 337.146 288.221 321.146 291.36C305.146 294.499 293.146 292.499 293.146 292.499Z" fill="#F5B896" stroke="black" stroke-width="1.9" stroke-linecap="round" stroke-linejoin="round"/>
<g id="object-hold-left" transform="translate(269.799 207)">

<g><svg xmlns="http://www.w3.org/2000/svg" width="164" height="169" viewBox="0 0 164 169" fill="none" class="injected-svg" data-src="/singaporean/object/hold-left/009-health.svg" xmlns:xlink="http://www.w3.org/1999/xlink">
<path d="M89.2694 43.4287C84.6476 38.8313 78.5746 36.2988 72.1602 36.2988C66.7382 36.2988 61.5596 38.114 57.3075 41.4545C56.4954 42.0925 55.3382 42.0925 54.5261 41.4544C50.2747 38.114 45.099 36.2988 39.6734 36.2988C33.259 36.2988 27.186 38.8313 22.548 43.4449C12.9832 53.0503 12.9873 68.0742 22.5561 77.6389L54.5026 109.585C55.2836 110.366 56.5499 110.366 57.331 109.585L89.2775 77.6389C98.8463 68.0742 98.8503 53.0503 89.2694 43.4287Z" fill="#EF4444" stroke="black" stroke-width="1.9" stroke-linecap="round" stroke-linejoin="round"/>
<path d="M55.7246 55.8984V86.3455" stroke="white" stroke-width="2.7627" stroke-linecap="round"/>
<path d="M41.6719 70.9541H69.7769" stroke="white" stroke-width="2.7627" stroke-linecap="round"/>
</svg></g></g>
<g id="clothing_2">
<path id="Vector 40-7341" d="M211.282 213.999L239.782 222.999C244.298 238.999 251.721 241.105 261.298 256.999C272.326 275.3 261.06 281.637 261.298 298.999C261.447 309.847 267.344 328.581 273.689 352.999C258.189 347.499 238.908 347.499 228.798 349.499C219.671 351.305 209.384 348.082 200.551 346.082C200.551 346.082 211.282 325.018 200.551 286.137C189.819 247.256 200.551 282.004 200.551 282.004C198.051 270.504 192.096 264.603 195.096 247.603C186.614 236.529 205.838 222.999 211.282 213.999Z" fill="#3A3E46" stroke="black" stroke-width="1.9" stroke-linecap="round" stroke-linejoin="round"/>
<g id="Vector 3174">
<path d="M213.166 352.894C214.852 344.179 205.764 324.422 204.091 312.209C204.022 311.703 203.595 311.324 203.085 311.324H172.728C169.9 311.324 164.254 339.783 161.597 355.05C161.494 355.645 161.928 356.187 162.531 356.21C180.847 356.907 213.85 357.319 213.334 353.943C213.28 353.592 213.098 353.243 213.166 352.894Z" fill="#EF4444"/>
<path d="M200.358 318.571L202.17 353.448M172.728 311.324C169.9 311.324 164.254 339.783 161.597 355.05C161.494 355.645 161.928 356.187 162.531 356.21C180.847 356.907 213.85 357.319 213.334 353.943C213.28 353.592 213.098 353.243 213.166 352.894C214.852 344.179 205.764 324.422 204.091 312.209C204.022 311.703 203.595 311.324 203.085 311.324C193.585 311.324 175.536 311.324 172.728 311.324Z" stroke="black" stroke-width="1.5" stroke-linecap="round" stroke-linejoin="round"/>
</g>
<path id="Vector 545-7342" d="M200.936 283.266C200.936 278.019 211.435 254.411 211.435 254.411C211.435 254.411 208.062 269.028 206.105 281.104C204.148 293.18 202.23 295.513 202.23 295.513C202.23 291.151 200.936 288.514 200.936 283.266Z" fill="black" stroke="black" stroke-width="1.9" stroke-linecap="round" stroke-linejoin="round"/>
<g id="Vector 45">
<path d="M198.971 396.657C200.029 395.874 191.831 387.957 190.953 381.736C199.496 276.014 205.435 269.679 210.826 255.894C216.217 242.109 207.908 228.38 207.908 228.38C197.677 222.642 187.702 238.34 179.406 280.737C173.122 312.854 178.164 350.08 177.415 381.736C174.995 389.603 174.036 406.039 177.415 409.236C179.529 411.236 180.029 409.236 180.029 407.736C180.651 409.719 180.483 411.369 182.256 411.369C184.029 411.37 184.629 408.212 184.676 407.181C184.676 410.207 185.788 411.37 187.702 411.369C191.029 411.236 188.912 400.946 190.953 393.546C192.088 395.722 195.28 399.39 198.971 396.657Z" fill="#F5B896"/>
<path d="M184.676 407.181C184.676 410.207 185.788 411.369 187.702 411.369C191.029 411.236 188.912 400.946 190.953 393.546C192.088 395.722 195.28 399.39 198.971 396.657C200.029 395.874 191.831 387.957 190.953 381.736C199.496 276.014 205.435 269.679 210.826 255.894C216.217 242.109 207.908 228.38 207.908 228.38C197.677 222.642 187.702 238.34 179.406 280.737C173.122 312.854 178.164 350.08 177.415 381.736C174.995 389.603 174.036 406.039 177.415 409.236C179.529 411.236 180.029 409.236 180.029 407.736M184.676 407.181C184.629 408.212 184.029 411.37 182.256 411.369C180.483 411.369 180.651 409.719 180.029 407.736M184.676 407.181C184.676 407.181 184.029 402.236 184.676 393.546M180.029 407.736C180.029 407.736 178.529 397.736 180.029 393.546" stroke="black" stroke-width="1.9" stroke-linecap="round" stroke-linejoin="round"/>
</g>
<path id="Vector 3248-7343" d="M208.738 314.492C224.069 256.664 212.213 231.896 204.368 226.741L208.738 267.776L204.368 312.475L211.428 339.708L208.738 314.492Z" fill="black"/>
<path id="Vector 3173-7344" d="M198.375 309.808L201.565 285.197C201.576 285.113 201.597 285.032 201.628 284.953C209.452 265.379 205.397 232.815 199.531 228.544C199.293 228.372 199.093 228.141 199.08 227.848C198.999 225.963 201.259 224.826 201.55 224.687C201.571 224.677 201.594 224.668 201.616 224.661C214.995 219.836 220.574 268.942 204.227 310.308C204.076 310.687 203.709 310.936 203.3 310.936H199.367C198.763 310.936 198.297 310.406 198.375 309.808Z" fill="#EF4444" stroke="black" stroke-width="1.5" stroke-linecap="round" stroke-linejoin="round"/>
</g>
</g>
<g id="fingers">
<path id="Ellipse 14-7345" d="M346.434 285.195C347.183 287.25 352.203 286.197 355.575 284.967C358.948 283.737 359.199 282.255 358.647 280.741C358.095 279.227 356.949 278.255 353.576 279.484C350.204 280.714 345.684 283.139 346.434 285.195Z" fill="#F5B896" stroke="black" stroke-width="1.9" stroke-linecap="round" stroke-linejoin="round"/>
<path id="Ellipse 15-7346" d="M348.434 290.195C349.183 292.25 354.203 291.197 357.575 289.967C360.948 288.737 361.199 287.255 360.647 285.741C360.095 284.227 358.949 283.255 355.576 284.484C352.204 285.714 347.684 288.139 348.434 290.195Z" fill="#F5B896" stroke="black" stroke-width="1.9" stroke-linecap="round" stroke-linejoin="round"/>
<path id="Ellipse 16-7347" d="M349.434 295.195C350.183 297.25 355.203 296.197 358.575 294.967C361.948 293.737 362.199 292.255 361.647 290.741C361.095 289.227 359.949 288.255 356.576 289.484C353.204 290.714 348.684 293.139 349.434 295.195Z" fill="#F5B896" stroke="black" stroke-width="1.9" stroke-linecap="round" stroke-linejoin="round"/>
</g>
</g>
</g>
</g>
</svg><svg xmlns="http://www.w3.org/2000/svg" width="500" height="700" viewBox="0 0 500 700" fill="none" class="injected-svg" data-src="/singaporean/head/004-permed-long-hair.svg" xmlns:xlink="http://www.w3.org/1999/xlink">
<path d="M261.224 191.057V152.557L240.815 145.241L219.631 152.557C219.631 163.557 215.121 167.223 214.119 169.557C210.277 166.723 202.193 163.957 200.589 171.557C198.985 179.157 204.125 183.571 208.468 184.071C211.675 201.271 211.614 212.39 209.609 216.557C213.618 224.557 227.649 223.223 234.164 221.557V209.057C261.024 209.857 261.224 200.057 261.224 191.057Z" fill="#F5B896" stroke="black" stroke-width="1.9" stroke-linejoin="round"/>
<path d="M233.663 209.057C230.152 208.897 224.384 207.856 222.828 204.972C222.762 204.83 222.699 204.692 222.638 204.557C222.692 204.699 222.755 204.838 222.828 204.972C225.261 210.267 230.539 220.278 233.663 221.057V209.057Z" fill="black"/>
<path d="M233.663 209.057C229.988 208.89 223.841 207.757 222.638 204.557C224.977 209.723 230.456 220.257 233.663 221.057V209.057Z" stroke="black" stroke-width="1.9" stroke-linecap="round" stroke-linejoin="round"/>
<path d="M200.456 171.711C198.576 178.464 206.411 182.215 210.327 183.466C210.327 189.817 211.914 208.968 208.916 217.399C208.626 218.215 208.647 227.851 203.007 227.851C184.679 205.811 183.725 126.782 225.834 130.908C235.234 124.813 270.012 130.907 261.082 160.451C254.812 154.812 254.249 153.688 251.433 149.194C241.861 161.554 213.706 170.543 213.706 170.543C208.916 165.487 202.336 164.959 200.456 171.711Z" fill="black" stroke="black" stroke-width="1.78189" stroke-linecap="round" stroke-linejoin="round"/>
<path d="M241.342 133.932C246.825 135.807 257.791 142.185 257.791 152.688" stroke="white" stroke-width="1.78189" stroke-linecap="round" stroke-linejoin="round"/>
<path d="M182.042 201.949C184.129 197.491 190.147 157.985 198.825 146.817C200.056 145.233 210.802 139.295 210.864 151.585C191.88 176.75 200.787 189.103 204.012 189.846C207.236 190.588 208.105 183.163 210.864 183.187C213.623 183.211 212.633 226.459 212.633 226.459C212.632 238.881 212.678 239.553 210.153 245.361C207.628 251.168 202.027 254.447 194.082 247.164C186.707 248.421 179.936 249.003 177.642 241.897C174.938 233.524 178.86 228.251 179.67 226.459C179.256 224.428 174.358 221.344 174.938 212.21C175.276 206.881 178.457 203.738 182.042 201.949Z" fill="black" stroke="black" stroke-width="1.40675" stroke-linecap="round" stroke-linejoin="round"/>
<path d="M185.983 208.386C184.422 210.35 182.236 215.21 185.983 218.933" stroke="white" stroke-width="1.78189" stroke-linecap="round" stroke-linejoin="round"/>
<path d="M203.752 240.208C205.508 238.466 208.19 233.932 204.861 229.736" stroke="white" stroke-width="1.78189" stroke-linecap="round" stroke-linejoin="round"/>
</svg><svg xmlns="http://www.w3.org/2000/svg" width="500" height="700" viewBox="0 0 500 700" fill="none" class="injected-svg" data-src="/singaporean/eyes/003-smile.svg" xmlns:xlink="http://www.w3.org/1999/xlink">
<path d="M250.291 167.669C252.797 166.669 257.307 168.269 257.307 172.669" stroke="black" stroke-width="1.5" stroke-linecap="round" stroke-linejoin="round"/>
<path d="M235.025 168.287C233.522 167.787 230.314 168.887 229.513 171.287" stroke="black" stroke-width="1.5" stroke-linecap="round" stroke-linejoin="round"/>
<ellipse cx="1.50336" cy="1.5" rx="1.50336" ry="1.5" transform="matrix(-1 0 0 1 236.528 171.18)" fill="black"/>
<ellipse cx="1.50336" cy="1.5" rx="1.50336" ry="1.5" transform="matrix(-1 0 0 1 252.564 170.169)" fill="black"/>
<path d="M239.244 179.528C240.05 176.887 242.85 175.398 245.498 176.203C248.145 177.008 249.638 179.802 248.831 182.443C248.353 184.008 247.176 185.168 245.745 185.687" stroke="black" stroke-width="1.5" stroke-linecap="round" stroke-linejoin="round"/>
</svg><svg xmlns="http://www.w3.org/2000/svg" width="500" height="700" viewBox="0 0 500 700" fill="none" class="injected-svg" data-src="/singaporean/mouth/003-grin.svg" xmlns:xlink="http://www.w3.org/1999/xlink">
<path d="M231.911 192.043C231.568 190.548 232.082 188.33 234.59 189.467C239.028 191.479 242.45 192.858 247.106 192.043C248.976 191.716 250.321 194.528 248.415 196.545C246.109 198.986 232.943 196.545 231.911 192.043Z" fill="white" stroke="black" stroke-width="1.4"/>
<path d="M236.979 191.024L235.422 195.081" stroke="black"/>
<path d="M240.692 192.341L239.774 196.191" stroke="black"/>
<line y1="-0.5" x2="4.27574" y2="-0.5" transform="matrix(-0.0294309 0.999567 -0.999626 -0.0273381 243.964 192.615)" stroke="black"/>
</svg><svg xmlns="http://www.w3.org/2000/svg" width="500" height="700" viewBox="0 0 500 700" fill="none" class="injected-svg" data-src="/singaporean/accessory/029-lanyard.svg" xmlns:xlink="http://www.w3.org/1999/xlink">
<path d="M235.526 222C239.535 243 240.236 261.5 237.029 263.5C233.822 265.5 230.013 247 209.468 215" stroke="black" stroke-width="1.5" stroke-linecap="round" stroke-linejoin="round"/>
<rect width="13.0291" height="25" rx="1" transform="matrix(-1 0 0 1 243.042 264.5)" fill="#EF4444" stroke="black" stroke-width="1.5" stroke-linecap="round" stroke-linejoin="round"/>
<path d="M242.541 271H230.515" stroke="black" stroke-width="1.5" stroke-linecap="round" stroke-linejoin="round"/>
</svg></g>
<ellipse id="Ellipse 6105" cx="783.836" cy="139.438" rx="61.0693" ry="20.5527" fill="#F1F5F9" stroke="black" stroke-width="2" stroke-linejoin="round"/>
<path id="Vector 3638-7270" d="M739.464 145.584C744.03 147.867 762.065 152.434 797.68 152.434" stroke="white" stroke-width="2" stroke-linejoin="round"/>
<path id="Vector 3636-7271" d="M784.277 113.295C720.757 113.295 690.839 127.203 681.317 136.244C680.158 137.343 681.018 139.053 682.616 139.053H881.753C883.228 139.053 884.12 137.541 883.166 136.416C875.505 127.38 848.202 113.295 784.277 113.295Z" fill="#E2E8F0" stroke="black" stroke-width="2" stroke-linejoin="round"/>
<g id="Group_4">
<g id="Group_5">
<path id="Vector_28-7272" d="M183.87 536.238H64.6455V768.818H183.87V536.238Z" fill="#94A3B8" stroke="black" stroke-width="1.9" stroke-linejoin="round"/>
<path id="Vector 3244-7273" d="M65.1399 539.203V536.238H184.208V547.108L65.1399 539.203Z" fill="black"/>
<path id="Vector_29-7274" d="M189.496 529.857H58.7158V535.975H189.496V529.857Z" fill="#94A3B8" stroke="black" stroke-width="1.9" stroke-linejoin="round"/>
<path id="Vector_30-7275" d="M230.646 529.857H189.524V535.975H230.646V529.857Z" fill="#64748B" stroke="black" stroke-width="1.9" stroke-linejoin="round"/>
<path id="Vector_31-7276" d="M224.154 535.977H183.743V768.556H224.154V535.977Z" fill="#64748B" stroke="black" stroke-width="1.9" stroke-linejoin="round"/>
<g id="Group_6">
<path id="Vector_32-7277" d="M168.766 559.609H79.4932C78.3886 559.609 77.4932 560.505 77.4932 561.609V610.193C77.4932 611.298 78.3886 612.193 79.4932 612.193H168.766C169.871 612.193 170.766 611.298 170.766 610.193V561.609C170.766 560.505 169.871 559.609 168.766 559.609Z" stroke="#64748B" stroke-width="1.9" stroke-miterlimit="10" stroke-linejoin="round"/>
<g id="Group_7">
<path id="Vector_33-7278" d="M129.303 574.934H111.075V585.407H129.303V574.934Z" fill="#64748B"/>
<path id="Vector_34-7279" d="M134.671 575.736H116.442V584.634H134.671V575.736Z" stroke="#64748B" stroke-width="1.9" stroke-miterlimit="10" stroke-linejoin="round"/>
</g>
</g>
<g id="Group_8">
<path id="Vector_35-7280" d="M168.766 626.064H79.4932C78.3886 626.064 77.4932 626.96 77.4932 628.064V676.648C77.4932 677.753 78.3886 678.648 79.4932 678.648H168.766C169.871 678.648 170.766 677.753 170.766 676.648V628.064C170.766 626.96 169.871 626.064 168.766 626.064Z" stroke="#64748B" stroke-width="1.9" stroke-miterlimit="10" stroke-linejoin="round"/>
<g id="Group_9">
<path id="Vector_36-7281" d="M129.303 641.357H111.075V651.831H129.303V641.357Z" fill="#64748B"/>
<path id="Vector_37-7282" d="M134.671 642.16H116.442V651.058H134.671V642.16Z" stroke="#64748B" stroke-width="1.9" stroke-miterlimit="10" stroke-linejoin="round"/>
</g>
</g>
<g id="Group_10">
<path id="Vector_38-7283" d="M168.766 692.488H79.4932C78.3886 692.488 77.4932 693.384 77.4932 694.488V743.072C77.4932 744.177 78.3886 745.072 79.4932 745.072H168.766C169.871 745.072 170.766 744.177 170.766 743.072V694.488C170.766 693.384 169.871 692.488 168.766 692.488Z" stroke="#64748B" stroke-width="1.9" stroke-miterlimit="10" stroke-linejoin="round"/>
<g id="Group_11">
<path id="Vector_39-7284" d="M129.303 707.781H111.075V718.255H129.303V707.781Z" fill="#64748B"/>
<path id="Vector_40-7285" d="M134.671 708.584H116.442V717.482H134.671V708.584Z" stroke="#64748B" stroke-width="1.9" stroke-miterlimit="10" stroke-linejoin="round"/>
</g>
</g>
</g>
</g>
<g id="Group_12">
<g id="Group_13">
<path id="Vector_41-7286" d="M871.331 536.238H752.106V768.818H871.331V536.238Z" fill="#94A3B8" stroke="black" stroke-width="1.9" stroke-linejoin="round"/>
<path id="Vector 3244_2-7287" d="M752.601 539.203V536.238H871.669V547.108L752.601 539.203Z" fill="black"/>
<path id="Vector_42-7288" d="M876.957 529.857H746.177V535.975H876.957V529.857Z" fill="#94A3B8" stroke="black" stroke-width="1.9" stroke-linejoin="round"/>
<path id="Vector_43-7289" d="M918.107 529.857H876.985V535.975H918.107V529.857Z" fill="#64748B" stroke="black" stroke-width="1.9" stroke-linejoin="round"/>
<path id="Vector_44-7290" d="M911.615 535.977H871.204V768.556H911.615V535.977Z" fill="#64748B" stroke="black" stroke-width="1.9" stroke-linejoin="round"/>
<g id="Group_14">
<path id="Vector_45-7291" d="M856.227 559.609H766.954C765.85 559.609 764.954 560.505 764.954 561.609V610.193C764.954 611.298 765.85 612.193 766.954 612.193H856.227C857.332 612.193 858.227 611.298 858.227 610.193V561.609C858.227 560.505 857.332 559.609 856.227 559.609Z" stroke="#64748B" stroke-width="1.9" stroke-miterlimit="10" stroke-linejoin="round"/>
<g id="Group_15">
<path id="Vector_46-7292" d="M816.764 574.934H798.536V585.407H816.764V574.934Z" fill="#64748B"/>
<path id="Vector_47-7293" d="M822.132 575.736H803.903V584.634H822.132V575.736Z" stroke="#64748B" stroke-width="1.9" stroke-miterlimit="10" stroke-linejoin="round"/>
</g>
</g>
<g id="Group_16">
<path id="Vector_48-7294" d="M856.227 626.064H766.954C765.85 626.064 764.954 626.96 764.954 628.064V676.648C764.954 677.753 765.85 678.648 766.954 678.648H856.227C857.332 678.648 858.227 677.753 858.227 676.648V628.064C858.227 626.96 857.332 626.064 856.227 626.064Z" stroke="#64748B" stroke-width="1.9" stroke-miterlimit="10" stroke-linejoin="round"/>
<g id="Group_17">
<path id="Vector_49-7295" d="M816.764 641.357H798.536V651.831H816.764V641.357Z" fill="#64748B"/>
<path id="Vector_50-7296" d="M822.132 642.16H803.903V651.058H822.132V642.16Z" stroke="#64748B" stroke-width="1.9" stroke-miterlimit="10" stroke-linejoin="round"/>
</g>
</g>
<g id="Group_18">
<path id="Vector_51-7297" d="M856.227 692.488H766.954C765.85 692.488 764.954 693.384 764.954 694.488V743.072C764.954 744.177 765.85 745.072 766.954 745.072H856.227C857.332 745.072 858.227 744.177 858.227 743.072V694.488C858.227 693.384 857.332 692.488 856.227 692.488Z" stroke="#64748B" stroke-width="1.9" stroke-miterlimit="10" stroke-linejoin="round"/>
<g id="Group_19">
<path id="Vector_52-7298" d="M816.764 707.781H798.536V718.255H816.764V707.781Z" fill="#64748B"/>
<path id="Vector_53-7299" d="M822.132 708.584H803.903V717.482H822.132V708.584Z" stroke="#64748B" stroke-width="1.9" stroke-miterlimit="10" stroke-linejoin="round"/>
</g>
</g>
</g>
</g>
<rect id="Rectangle 34647907" x="54.1074" y="505.414" width="879.708" height="26" rx="2" fill="#E2E8F0" stroke="black" stroke-width="2" stroke-linejoin="round"/>
<g id="Group_20">
<g id="Group_21">
<path id="Vector_54-7300" d="M776.44 505.862H668.431C666.476 505.862 664.891 504.277 664.891 502.321V451.611H779.981V502.321C779.981 504.277 778.396 505.862 776.44 505.862Z" fill="#94A3B8" stroke="black" stroke-width="1.9" stroke-linejoin="round"/>
<path id="Vector_55-7301" d="M781.37 468.41H663.499C662.658 468.41 661.977 467.728 661.977 466.887V433.27C661.977 432.189 662.853 431.312 663.934 431.312H780.935C782.016 431.312 782.892 432.189 782.892 433.27V466.887C782.892 467.728 782.21 468.41 781.37 468.41Z" fill="#64748B" stroke="black" stroke-width="1.9" stroke-linejoin="round"/>
<path id="Vector_56-7302" d="M779.977 468.414H664.977V473.414L779.977 470.414V468.414Z" fill="black"/>
<g id="Group_22">
<path id="Vector_57-7303" d="M729.096 477.274H715.769C715.487 477.274 715.258 477.046 715.258 476.764V460.753C715.258 460.471 715.486 460.242 715.769 460.242H729.096C729.378 460.242 729.607 460.471 729.607 460.753V476.764C729.607 477.046 729.378 477.274 729.096 477.274Z" fill="#938E8C" stroke="black" stroke-width="1.9" stroke-linejoin="round"/>
<path id="Vector_58-7304" d="M726.583 474.412H718.37C718.153 474.412 717.977 474.231 717.977 474.007V463.817C717.977 463.594 718.153 463.412 718.37 463.412H726.583C726.8 463.412 726.977 463.593 726.977 463.817V474.007C726.977 474.231 726.8 474.412 726.583 474.412Z" fill="#C1BEBD"/>
</g>
</g>
<path id="Vector_59-7305" d="M704.465 419.748V431.313H740.916V419.748C740.916 419.011 740.216 418.414 739.351 418.414H706.03C705.166 418.414 704.465 419.011 704.465 419.748ZM736.512 431.313H709.173V423.948C709.173 423.211 709.874 422.614 710.738 422.614H734.947C735.811 422.614 736.512 423.211 736.512 423.948L736.512 431.313Z" fill="#94A3B8" stroke="black" stroke-width="2" stroke-linejoin="round"/>
</g>
<g id="Group_23">
<path id="Vector_60-7306" d="M342.077 468.822H313.752V498.864H342.077V468.822Z" fill="#94A3B8" stroke="black" stroke-width="2" stroke-linejoin="round"/>
<path id="Vector 3246-7307" d="M314.107 477.914H342.107V480.414L314.107 483.914V477.914Z" fill="black"/>
<path id="Vector_61-7308" d="M349.107 502.414H307.107L313.827 497.414H342.388L349.107 502.414Z" fill="#94A3B8" stroke="black" stroke-width="2" stroke-linejoin="round"/>
<path id="Vector_62-7309" d="M396.107 391.738V474.09C396.107 475.926 394.481 477.414 392.475 477.414H263.74C261.734 477.414 260.107 475.926 260.107 474.09V391.738C260.107 389.902 261.734 388.414 263.74 388.414H392.475C394.481 388.414 396.107 389.902 396.107 391.738Z" fill="#94A3B8" stroke="black" stroke-width="2" stroke-linejoin="round"/>
<path id="Vector_63-7310" d="M328.107 424.414C331.421 424.414 334.107 421.728 334.107 418.414C334.107 415.1 331.421 412.414 328.107 412.414C324.794 412.414 322.107 415.1 322.107 418.414C322.107 421.728 324.794 424.414 328.107 424.414Z" fill="#E2E8F0"/>
<path id="Vector_64-7311" d="M349.107 502.414H307.107V505.414H349.107V502.414Z" fill="#94A3B8" stroke="black" stroke-width="2" stroke-linejoin="round"/>
</g>
<g id="Group 632858">
<path id="Vector 2887-7312" d="M251.603 392.883C257.331 380.468 262.188 379.422 266.783 379.432C282.341 379.464 263.23 440.657 250.672 437.871C238.113 435.086 244.442 408.402 251.603 392.883Z" fill="#E2E8F0" stroke="black" stroke-width="1.38411" stroke-linecap="round" stroke-linejoin="round"/>
<path id="Vector 2888-7313" d="M238.156 369.27C230.736 351.611 223.947 348.967 217.528 349.621C193.083 352.111 219.47 435.28 237.226 432.116C254.983 428.952 247.43 391.344 238.156 369.27Z" fill="#CBD5E1" stroke="black" stroke-width="1.38411" stroke-linecap="round" stroke-linejoin="round"/>
<path id="Vector 2889-7314" d="M198.738 386.478C183.844 374.434 176.612 375.318 171.267 378.932C150.912 392.697 213.522 453.47 227.666 442.278C241.81 431.086 217.356 401.532 198.738 386.478Z" fill="#E2E8F0" stroke="black" stroke-width="1.38411" stroke-linecap="round" stroke-linejoin="round"/>
<path id="Vector 2890-7315" d="M266.223 449.478H219.233V484.103C219.233 494.49 227.374 497.499 231.445 497.705V504.661H253.857V497.705C263.379 498.2 266.069 488.843 266.223 484.103V449.478Z" fill="#EF4444" stroke="black" stroke-width="1.38559" stroke-linecap="round" stroke-linejoin="round"/>
<path id="Vector 2891-7316" d="M216.761 358.281C225.005 373.944 240.967 414.081 238.864 449.324" stroke="black" stroke-width="1.38559" stroke-linecap="round" stroke-linejoin="round"/>
<path id="Vector 2892-7317" d="M197.285 404.344C208.775 414.391 232.682 437.452 236.392 449.323" stroke="black" stroke-width="1.38559" stroke-linecap="round" stroke-linejoin="round"/>
<path id="Vector 2893-7318" d="M265.451 385.793C258.959 397.437 246.717 426.414 249.685 449.167" stroke="black" stroke-width="1.38559" stroke-linecap="round" stroke-linejoin="round"/>
<path id="Vector 2894-7319" d="M271.07 410.205C278.927 402.644 282.722 403.403 286.01 404.877C297.146 409.868 264.955 450.046 256.801 443.931C248.648 437.816 261.249 419.656 271.07 410.205Z" fill="#CBD5E1" stroke="black" stroke-width="1.38411" stroke-linecap="round" stroke-linejoin="round"/>
<path id="Vector 2895-7320" d="M283.844 409.287C274.003 418.561 254.228 439.522 253.857 449.167" stroke="black" stroke-width="1.38559" stroke-linecap="round" stroke-linejoin="round"/>
<path id="Vector 2896-7321" d="M221.113 455.943H263.287" stroke="black" stroke-width="1.38559" stroke-linecap="round"/>
</g>
<path id="Vector 3635-7322" d="M783.424 101.912C723.222 101.912 698.407 119.084 693.525 127.67H869.283C865.747 119.084 843.626 101.912 783.424 101.912Z" fill="#64748B" stroke="black" stroke-width="2" stroke-linejoin="round"/>
<path id="Vector 3637-7323" d="M782.893 100.703V-0.734375" stroke="black" stroke-width="2" stroke-linejoin="round"/>
<g id="singaporean-box-2" transform="matrix(-1 0 0 1 890.506 142.23) scale(1.00)" style="--color-illustration-primary: #3A3E46; --color-illustration-secondary: #D1D5DB; --color-illustration-accent: #EF4444; --color-illustration-skin: #F5B896;">

<svg xmlns="http://www.w3.org/2000/svg" width="500" height="700" viewBox="0 0 500 700" fill="none" class="injected-svg" data-src="/singaporean/lower/027-pencil-skirt.svg" xmlns:xlink="http://www.w3.org/1999/xlink">
<path d="M267.074 612.079C261.64 612.079 248.631 605.491 242.366 599.656H222.497L222.497 621.678H262.241C278.591 621.678 274.592 612.079 267.074 612.079Z" fill="#3A3E46" stroke="black" stroke-width="1.9" stroke-linecap="round" stroke-linejoin="round"/>
<path d="M248.162 614.722C242.693 614.722 229.067 606.526 222.762 600.757H202.766L198.443 622.779C204.568 622.593 232.49 622.779 244.919 622.779C261.373 622.779 255.728 614.722 248.162 614.722Z" fill="#3A3E46" stroke="black" stroke-width="1.9" stroke-linecap="round" stroke-linejoin="round"/>
<path d="M194.935 402.711C185.313 370.666 198.944 351.974 206.962 346.633L264.089 340.911C268.599 385.544 259.579 462.336 257.575 467.371C255.069 473.666 236.026 594.187 239.534 599.909H233.02H219.489H202.953C211.973 488.996 196.271 438.951 194.935 402.711Z" fill="#F5B896" stroke="black" stroke-width="1.9" stroke-linecap="round" stroke-linejoin="round"/>
<path d="M224.501 598.587L237.029 461.428L221.494 598.587H224.501Z" fill="black"/>
<path d="M242.04 360.718C246.049 409.356 237.029 461.428 237.029 461.428M237.029 461.428L224.501 598.587H221.494L237.029 461.428Z" stroke="black" stroke-width="1.9" stroke-linecap="round" stroke-linejoin="round"/>
<path d="M199.286 489.717C177.638 376.084 193.272 348.41 203.796 348.777C216.624 339.087 251.235 340.335 266.937 342.17C276.157 370.798 263.095 452.463 255.411 489.717C247.794 484.873 214.821 487.699 199.286 489.717Z" fill="#D1D5DB" stroke="black" stroke-width="1.9" stroke-linecap="round" stroke-linejoin="round"/>
<path d="M234.023 492.299C234.423 490.537 247.219 489.73 253.566 489.546C252.363 488.225 240.036 488.262 234.023 487.895C233.855 490.464 233.622 494.061 234.023 492.299Z" fill="black" stroke="black" stroke-width="1.9" stroke-linecap="round" stroke-linejoin="round"/>
<path d="M204.958 495.053C205.359 493.291 227.675 488.63 234.023 488.447C232.82 487.125 211.694 489.915 205.68 489.548C205.513 492.118 204.557 496.815 204.958 495.053Z" fill="black" stroke="black" stroke-width="1.9" stroke-linecap="round" stroke-linejoin="round"/>
<path d="M228.51 363.8C226.506 372.955 218.889 389.55 204.456 382.683" stroke="black" stroke-width="1.9" stroke-linecap="round" stroke-linejoin="round"/>
</svg><svg xmlns="http://www.w3.org/2000/svg" width="500" height="700" viewBox="0 0 500 700" fill="none" class="injected-svg" data-src="/singaporean/upper/templated-023-hold-left-business-outfit.svg" xmlns:xlink="http://www.w3.org/1999/xlink">
<g id="templated-023 - hold-left business outfit">
<g id="NEW your singaporean">
<g id="upper body">
<g id="Group 632998">
<path id="Vector 40-7348" d="M239.299 222C251.799 226.5 269.299 247 279.799 256.5C282.599 269.3 272.799 266.822 276.799 272.488C264.399 276.888 264.632 248.333 252.799 247C273.599 281.8 280.132 323.5 280.799 345.5C265.299 340 237.299 343 226.799 348C218.399 352 198.632 349 189.799 347V284.988C183.799 281.488 197.141 285.075 187.141 282.575C193.541 258.975 204.733 229.494 209.299 217.5L239.299 222Z" fill="#F5B896" stroke="black" stroke-width="1.9" stroke-linecap="round" stroke-linejoin="round"/>
<path id="Vector 63-7349" d="M274.299 343.5C279.499 328.3 272.465 299.667 269.299 284C274.499 299.6 280.132 329.333 281.299 345.5L274.299 343.5Z" fill="black" stroke="black" stroke-width="1.9" stroke-linecap="round" stroke-linejoin="round"/>
<path id="Vector 293-7350" d="M219.799 292.988C223.299 291.988 231.599 289.988 236.799 289.988C241.999 289.988 249.299 291.988 252.299 292.988" stroke="black" stroke-width="1.5" stroke-linecap="round" stroke-linejoin="round"/>
<g id="hands">
<path id="Vector 103-7351" d="M310.299 305.5C321.299 282 261.352 229.325 242.352 223.825C242.352 223.825 244.437 237.5 251.299 251.5C258.161 265.5 261.799 266 261.799 266L250.437 291.486C256.23 296.767 265.712 293.412 273.937 297.102C289.851 304.242 306.673 307.808 310.299 305.5Z" fill="#F5B896" stroke="black" stroke-width="1.9" stroke-linecap="round" stroke-linejoin="round"/>
<path id="Vector 104-7352" d="M262.299 276.5C257.499 276.9 258.632 281 259.799 283C264.199 286.2 269.632 287.333 271.799 287.5M262.299 276.5C261.188 274.5 263.399 271.4 267.799 273C272.199 274.6 274.965 274.667 275.799 274.5C276.999 274.469 280.299 266.82 281.799 263C284.999 265.8 283.799 273.5 282.799 277C282.799 277 286.937 285.486 299.437 288.5M262.299 276.5C264.299 280.1 270.465 281.667 273.299 282" stroke="black" stroke-width="1.9" stroke-linecap="round" stroke-linejoin="round"/>
<path id="Vector 104_2-7353" d="M244.588 295.432L256.587 248.77C256.986 247.219 258.532 246.255 260.1 246.58L283.207 251.36C284.889 251.708 285.936 253.394 285.502 255.055L283.51 262.691C283.386 263.168 282.956 263.5 282.463 263.5C282.056 263.5 281.683 263.729 281.499 264.092L276.363 274.202C275.947 275.022 275.171 275.599 274.254 275.542C272.931 275.459 270.866 275.108 268.135 274.154C267.849 274.054 267.579 273.901 267.332 273.726C265.624 272.51 264.512 272.343 263.788 272.731C261.761 273.816 259.105 277.224 258.705 279.489C258.542 280.409 258.657 281.454 259.11 282.361C259.506 283.157 259.863 284.008 260.023 284.882C260.899 289.673 267.59 293.758 272.757 295.633C274.342 296.208 275.382 297.851 274.992 299.491L274.469 301.686C274.095 303.256 272.546 304.249 270.963 303.933L246.905 299.121C245.218 298.784 244.16 297.099 244.588 295.432Z" fill="white" stroke="black" stroke-width="1.9" stroke-linecap="round" stroke-linejoin="round"/>
<circle id="Ellipse 19" cx="262.974" cy="255.022" r="3" transform="rotate(-11.4818 262.974 255.022)" fill="black"/>
</g>
</g>
<g id="upper body_2">
<path id="Rectangle 34647637-7354" d="M209.832 218.104C209.832 218.104 231.169 222.077 237.52 222.152C243.87 222.228 251.881 233.005 251.881 233.005L264.88 343.836C264.88 343.836 254.691 350.695 209.371 348.604C164.051 346.513 209.832 218.104 209.832 218.104Z" fill="white" stroke="black" stroke-width="1.9" stroke-linecap="round" stroke-linejoin="round"/>
<path id="Vector 63_2-7355" d="M274.299 343.5C279.499 328.3 272.465 299.667 269.299 284C274.499 299.6 280.132 329.333 281.299 345.5L274.299 343.5Z" fill="black" stroke="black" stroke-width="1.9" stroke-linecap="round" stroke-linejoin="round"/>
<g id="Vector 45">
<path d="M203.614 391.241C201.209 382.582 173.23 309.26 210.979 257.553C223.717 235.744 214.577 234.136 211.254 223.99C196.01 244.865 160.145 290.656 185.928 389.295C183.592 398.174 181.641 415.724 187.266 416.219C189.981 416.458 190.255 415.051 190.077 413.587C190.471 415.489 191.333 417.473 193.808 417.745C197.345 418.135 196.155 413.283 196.257 412.16C196.303 415.656 197.855 418.222 200.507 418.175C203.815 418.115 200.507 406.656 201.916 399.943C203.048 402.372 206.352 406.53 210.512 403.729C211.145 403.728 205.257 397.156 203.614 391.241Z" fill="#F5B896"/>
<path d="M196.257 412.16C196.303 415.656 197.855 418.222 200.507 418.175C203.815 418.115 200.507 406.656 201.916 399.943C203.048 402.372 206.352 406.53 210.512 403.729C211.145 403.729 205.257 397.156 203.614 391.241C201.209 382.582 173.23 309.26 210.979 257.553C223.717 235.744 214.577 234.136 211.254 223.99C196.01 244.865 160.145 290.656 185.928 389.295C183.592 398.174 181.641 415.724 187.266 416.219C191.765 416.616 189.562 412.49 189.705 411.078M196.257 412.16C196.155 413.283 197.345 418.135 193.808 417.745C190.13 417.34 190.014 413.156 189.705 411.078M196.257 412.16C196.257 412.16 194.645 407.156 195.328 399.521M189.705 411.078C189.705 411.078 188.645 405.656 190.104 398.376" stroke="black" stroke-width="1.9" stroke-linecap="round" stroke-linejoin="round"/>
</g>
<g id="Vector 3176">
<path d="M181.094 384.984C183.006 383.072 196.546 381.639 203.077 381.161C202.306 378.673 199.911 352.759 198.89 349.131C205.872 353.381 231.421 354.361 238.668 351.82C229.468 342.516 219.231 265.816 220.064 233.275C216.264 232.875 213.378 225.668 209.077 217.585C192.351 237.178 177.492 288.146 175.644 301.655C170.209 341.369 178.705 387.373 181.094 384.984Z" fill="#3A3E46"/>
<path d="M198.89 349.131C199.911 352.759 202.306 378.673 203.077 381.161C196.546 381.639 183.006 383.072 181.094 384.984C178.705 387.373 170.209 341.369 175.644 301.655C177.492 288.146 192.351 237.178 209.077 217.585C213.378 225.668 216.264 232.875 220.064 233.275C219.231 265.816 229.468 342.516 238.668 351.82C231.421 354.361 205.872 353.381 198.89 349.131ZM198.89 349.131C196.475 338.306 194.945 305.955 208.145 263.155" stroke="black" stroke-width="1.9" stroke-linecap="round" stroke-linejoin="round"/>
</g>
<g id="hands_2">
<g id="Vector 3178">
<path d="M316.624 304.186C326.024 276.986 250.835 220.852 236.385 220.852C237.505 224.371 239.861 230.47 237.175 231.319C246.508 255.986 264.877 318.761 258.556 349.994C258.556 349.994 279.163 358.744 281.517 349.994C283.871 341.243 276.934 297.739 276.934 297.739L281.517 300.639C292.117 307.839 309.291 311.101 316.624 304.186Z" fill="#3A3E46"/>
<path d="M281.517 300.639C292.117 307.839 309.291 311.1 316.624 304.186C326.024 276.986 250.835 220.852 236.385 220.852C237.505 224.371 239.861 230.47 237.175 231.319C246.508 255.986 264.877 318.761 258.556 349.994C258.556 349.994 279.163 358.744 281.517 349.994C283.871 341.243 276.934 297.739 276.934 297.739L281.517 300.639ZM281.517 300.639L290.586 283.061C293.17 285.727 300.854 288.699 305.561 288.699" stroke="black" stroke-width="1.9" stroke-linecap="round" stroke-linejoin="round"/>
</g>
<g id="object-hold-left" transform="translate(243.398 169.827) rotate(25.2762)">

<g><svg xmlns="http://www.w3.org/2000/svg" width="164" height="169" viewBox="0 0 164 169" fill="none" class="injected-svg" data-src="/singaporean/object/hold-left/004-phone.svg" xmlns:xlink="http://www.w3.org/1999/xlink">
<path d="M55.5587 106.8L58.1321 56.6771C58.1868 55.6109 59.0692 54.7757 60.1367 54.7796L85.7835 54.8725C86.9113 54.8766 87.8127 55.812 87.7751 56.9392L86.3186 100.599L86.1087 106.89C86.0728 107.966 85.1921 108.82 84.1158 108.823L57.5621 108.903C56.4149 108.906 55.4999 107.946 55.5587 106.8Z" fill="#EF4444" stroke="black" stroke-width="1.9" stroke-linecap="round" stroke-linejoin="round"/>
<circle cx="65.71" cy="63.9678" r="3" transform="rotate(-11.4818 65.71 63.9678)" fill="black"/>
</svg></g></g>
<g id="Vector 104_3">
<path d="M270.008 276.917C265.208 277.317 266.342 281.417 267.508 283.417C268.302 287.026 272.613 295.047 283.508 298.252L290.508 285.238C289.508 283.417 290.508 277.417 290.508 277.417L290.52 277.376C291.525 273.858 293.696 266.26 290.508 263.471C289.008 267.291 284.708 274.886 283.508 274.917C282.675 275.083 279.908 275.017 275.508 273.417C271.108 271.817 268.897 274.917 270.008 276.917Z" fill="#F5B896"/>
<path d="M267.508 283.417C266.342 281.417 265.208 277.317 270.008 276.917M267.508 283.417C271.908 286.617 277.342 287.75 279.508 287.917M267.508 283.417C268.302 287.026 272.613 295.047 283.508 298.252L290.508 285.238C289.508 283.417 290.508 277.417 290.508 277.417C291.508 273.917 293.708 266.271 290.508 263.471C289.008 267.291 284.708 274.886 283.508 274.917C282.675 275.083 279.908 275.017 275.508 273.417C271.108 271.817 268.897 274.917 270.008 276.917M270.008 276.917C272.008 280.517 278.175 282.083 281.008 282.417" stroke="black" stroke-width="1.9" stroke-linecap="round" stroke-linejoin="round"/>
</g>
</g>
<g id="Vector 3269">
<path d="M206.057 273.354C206.786 269.311 207.499 265.685 208.145 262.655L206.057 273.354C201.895 296.442 197.219 333.135 201.645 350.155L198.645 348.655L197.145 329.155L198.645 308.655L200.145 303.655L206.057 273.354Z" fill="black"/>
<path d="M208.145 262.655C203.812 282.989 196.445 330.155 201.645 350.155L198.645 348.655L197.145 329.155L198.645 308.655L200.145 303.655L208.145 262.655Z" stroke="black"/>
</g>
</g>
</g>
</g>
</g>
</svg><svg xmlns="http://www.w3.org/2000/svg" width="500" height="700" viewBox="0 0 500 700" fill="none" class="injected-svg" data-src="/singaporean/head/002-curved-medium-length-hair.svg" xmlns:xlink="http://www.w3.org/1999/xlink">
<path d="M260.984 191.056V152.556L239.706 142.734L219.392 152.556C219.392 163.556 214.882 167.223 213.879 169.556C210.037 166.723 201.953 163.956 200.349 171.556C198.746 179.156 207.06 181.736 211.403 182.236C214.61 199.436 211.374 212.39 209.369 216.556C213.378 224.556 227.41 223.223 233.924 221.556V209.056C260.784 209.856 260.984 200.056 260.984 191.056Z" fill="#F5B896" stroke="black" stroke-width="1.9" stroke-linejoin="round"/>
<path d="M233.423 209.057C229.912 208.897 224.144 207.856 222.588 204.972C222.523 204.83 222.459 204.692 222.398 204.557C222.452 204.699 222.515 204.838 222.588 204.972C225.022 210.267 230.3 220.278 233.423 221.057V209.057Z" fill="black" stroke="black" stroke-width="1.9" stroke-linecap="round" stroke-linejoin="round"/>
<path d="M201.452 172.113C199.448 179.313 206.194 182.374 210.37 183.708C211.586 193.01 213.748 209.593 209.47 220.5C209.132 221.36 193.434 222 187.421 222C167.877 198.5 182.609 123.876 227.51 128.276C237.532 121.777 274.615 128.275 265.094 159.777C253.568 159.777 245.049 152.777 240.038 143.277C240.038 160.776 213.748 170.495 213.748 170.495C209.739 167.495 203.457 164.913 201.452 172.113Z" fill="black" stroke="black" stroke-width="1.9" stroke-linecap="round" stroke-linejoin="round"/>
<path d="M244.046 131.5C249.893 133.5 261.585 140.3 261.585 151.5" stroke="white" stroke-width="1.9" stroke-linecap="round" stroke-linejoin="round"/>
</svg><svg xmlns="http://www.w3.org/2000/svg" width="500" height="700" viewBox="0 0 500 700" fill="none" class="injected-svg" data-src="/singaporean/eyes/001-cheery.svg" xmlns:xlink="http://www.w3.org/1999/xlink">
<path d="M254.252 174.171C253.992 173.083 253.36 171.871 251.667 172.027C250.089 172.172 249.258 173.519 249.404 175.093" stroke="black" stroke-width="1.5" stroke-linecap="round" stroke-linejoin="round"/>
<path d="M237.105 174.87C236.896 173.772 236.32 172.532 234.621 172.611C233.038 172.685 232.147 173.992 232.22 175.572" stroke="black" stroke-width="1.5" stroke-linecap="round" stroke-linejoin="round"/>
<path d="M236.528 164.575C236.528 162.5 231.016 162 229.513 166" stroke="black" stroke-width="1.5" stroke-linecap="round" stroke-linejoin="round"/>
<path d="M249.557 164.575C249.557 162.5 255.571 161.5 256.573 166" stroke="black" stroke-width="1.5" stroke-linecap="round" stroke-linejoin="round"/>
<path d="M239.244 179.528C240.05 176.887 242.85 175.398 245.498 176.203C248.145 177.008 249.638 179.802 248.831 182.443C248.353 184.008 247.176 185.168 245.745 185.687" stroke="black" stroke-width="1.5" stroke-linecap="round" stroke-linejoin="round"/>
</svg><svg xmlns="http://www.w3.org/2000/svg" width="500" height="700" viewBox="0 0 500 700" fill="none" class="injected-svg" data-src="/singaporean/mouth/001-laughing.svg" xmlns:xlink="http://www.w3.org/1999/xlink">
<path d="M237.958 199.066C231.844 196.97 227.011 185.327 230.509 186.875C233.956 190.091 243.954 194.94 252.688 190.66C254.783 189.634 249.785 203.121 237.958 199.066Z" fill="black" stroke="black" stroke-width="1.5" stroke-linecap="round" stroke-linejoin="round"/>
<path d="M240.23 196.734C243.43 194.684 246.61 196.497 247.749 197.584C240.035 201.378 235.279 197.19 233.302 194.64C235.725 192.787 239.129 195.121 240.23 196.734Z" fill="white"/>
</svg><svg xmlns="http://www.w3.org/2000/svg" width="500" height="700" viewBox="0 0 500 700" fill="none" class="injected-svg" data-src="/singaporean/accessory/016-square-frames.svg" xmlns:xlink="http://www.w3.org/1999/xlink">
<path d="M246.042 169.94C247.219 168.547 249.018 168.547 252.348 168.547C255.678 168.547 256.972 168.765 258.391 169.94C259.222 170.627 259.224 174.129 259.083 176.914C258.979 178.957 257.26 180.5 255.214 180.5L249.274 180.5C249.274 180.5 249.155 178.947 248.053 177.62C246.951 176.292 245.547 175.872 245.547 175.872C245.547 175.872 244.865 171.332 246.042 169.94Z" stroke="black" stroke-width="1.5" stroke-linecap="round" stroke-linejoin="round"/>
<path d="M259.233 173.555L261.178 171.982" stroke="black" stroke-width="1.5" stroke-linecap="round" stroke-linejoin="round"/>
<path d="M225.503 169.94C226.279 168.95 229.011 168.5 234.023 168.5C239.034 168.5 239.542 168.816 240.734 169.94C241.926 171.064 241.539 176.366 241.539 176.366C241.539 176.366 240.832 176.897 240.178 177.808C239.524 178.72 239.207 180.5 239.207 180.5H229.192C227.109 180.5 225.372 178.901 225.267 176.82C225.126 174.008 225.052 170.517 225.503 169.94Z" stroke="black" stroke-width="1.5" stroke-linecap="round" stroke-linejoin="round"/>
<path d="M214.479 168.5C217.485 170.167 222.576 172.904 225.098 173.428" stroke="black" stroke-width="1.5" stroke-linecap="round" stroke-linejoin="round"/>
</svg></g>
</g>
<defs>
<clipPath id="clip0_7680_148889-7242">
<rect width="962" height="846" fill="white"/>
</clipPath>
</defs>
</svg>