<svg xmlns="http://www.w3.org/2000/svg" width="851" height="731" viewBox="0 0 851 731" fill="none" class="injected-svg" data-src="/scenes/3/templated-304-communications.svg" xmlns:xlink="http://www.w3.org/1999/xlink" role="img" style="width: 100%; height: 100%; max-width: 100%; max-height: 100%; position: absolute; top: 0; left: 0; right: 0; bottom: 0; z-index: 0;" id="scene">
<g id="templated-304 - communications" clip-path="url(#clip0_7680_151763-1548)">
<path id="Vector 3045-1549" d="M333.157 589.046C326.988 578.15 312.523 558.486 304.016 566.992C295.51 575.499 311.92 589.269 321.189 595.091C307.223 586.862 278.095 573.545 273.307 586.114C268.519 598.683 283.382 605.017 291.412 606.613C281.169 605.442 260.881 604.978 261.672 612.488C262.462 619.998 288.846 626.158 301.939 628.299H348.877C366.746 613.476 398.483 580.719 382.475 568.268C369.884 558.475 359.626 572.798 353.817 586.571C360.651 562.49 361.849 527.287 346.364 527.141C328.379 526.971 331.068 569.191 333.157 589.046Z" fill="#F1F5F9"/>
<path id="Vector 3046-1550" d="M641.45 633.785C631.813 619.924 611.669 583.681 627.341 575.655C643.013 567.629 650.754 598.431 652.666 614.836C650.277 584.097 652.952 523.193 682.767 525.487C712.582 527.78 702.198 569.764 693.279 590.469C699.73 576.367 715.926 549.683 729.098 555.763C740.695 561.115 733.116 579.557 726.066 591.21C732.547 581.987 744.023 570.362 753.924 575.655C765.475 581.831 762.621 597.898 759.75 605.16C769.038 593.17 789.642 572.127 797.748 583.881C807.881 598.574 797.495 633.532 763.296 633.785H641.45Z" fill="#F1F5F9"/>
<g id="Frame 632964">
<g id="Frame 632965">
<rect id="Rectangle" x="345.686" y="99.3994" width="277.735" height="544.031" rx="53.0286" fill="#CBD5E1"/>
<rect id="Rectangle_2" x="345.686" y="99.3994" width="277.735" height="544.031" rx="53.0286" stroke="black" stroke-width="1.9"/>
<path id="Path-1551" d="M567.935 112.031H540.737C537.789 112.029 535.107 113.936 533.863 116.919L532.927 119.174C531.682 122.153 529.005 124.059 526.06 124.062H443.028C440.08 124.062 437.399 122.156 436.154 119.174L435.217 116.919C433.976 113.937 431.297 112.03 428.351 112.031H401.18C390.959 112.029 381.155 116.558 373.926 124.623C366.697 132.688 362.636 143.627 362.636 155.034V580.898C362.636 592.305 366.697 603.244 373.926 611.309C381.155 619.374 390.959 623.903 401.18 623.901H567.935C589.219 623.901 606.473 604.648 606.473 580.898V155.034C606.473 131.284 589.219 112.031 567.935 112.031Z" fill="white"/>
</g>
<rect id="Rectangle 34647608" x="388.935" y="542.623" width="196.844" height="40.1399" rx="20.07" fill="#E2E8F0"/>
<rect id="Rectangle 34647609" x="388.935" y="485.646" width="196.844" height="40.1399" rx="20.07" fill="#E2E8F0"/>
</g>
<path id="Vector 3242-1552" d="M349.516 82.5209C349.747 82.0881 349.616 81.5478 349.214 81.2718C348.812 80.9958 348.27 81.0742 347.96 81.4531C346.023 83.8259 342.873 87.3387 338.98 89.9532C335.084 92.5689 330.556 94.2131 325.793 93.0728C325.321 92.9598 324.842 93.2282 324.686 93.6934C324.529 94.1587 324.745 94.6693 325.186 94.8742C327.968 96.167 330.863 98.3642 332.456 102.218C334.052 106.08 334.408 111.767 331.776 120.174C331.622 120.667 331.882 121.196 332.363 121.368C332.845 121.539 333.373 121.292 333.556 120.809C334.451 118.44 337.436 114.025 341.393 110.328C345.375 106.606 350.061 103.875 354.327 104.362C354.845 104.421 355.311 104.043 355.369 103.518C355.426 102.992 355.053 102.519 354.536 102.46C351.239 102.084 348.868 99.3444 347.868 95.4149C346.872 91.4998 347.324 86.6303 349.516 82.5209Z" fill="white" stroke="black" stroke-width="1.9" stroke-linejoin="round"/>
<g id="singaporean-box-1" transform="matrix(0.99944 0.0334696 -0.0324872 0.999472 112.973 1.98145) scale(1.00)" style="--color-illustration-primary: #3A3E46; --color-illustration-secondary: #D1D5DB; --color-illustration-accent: #EF4444; --color-illustration-skin: #F5B896;">

<svg xmlns="http://www.w3.org/2000/svg" width="500" height="700" viewBox="0 0 500 700" fill="none" class="injected-svg" data-src="/singaporean/lower/026-strolling-skirt.svg" xmlns:xlink="http://www.w3.org/1999/xlink">
<path d="M253.743 613.902C247.952 613.764 238.038 607.151 231.306 601.342L210.135 600.836L204.673 622.239C211.156 622.211 233.281 622.78 248.686 623.072C266.106 623.402 261.753 614.094 253.743 613.902Z" fill="#3A3E46" stroke="black" stroke-width="1.9" stroke-linecap="round" stroke-linejoin="round"/>
<path d="M203.384 348.408C194.414 351.745 183.459 363.085 184.599 389.697C185.342 407.032 200.219 424.43 185.568 454.492C175.872 474.387 180.772 501.014 138.027 557.801L151.619 575.052C151.619 575.052 198.661 495.176 210.832 482.378C213.96 479.088 217.153 472.327 220.17 464.096C220.403 467.392 220.805 470.8 221.403 474.314C228.713 517.256 212.628 602.474 212.628 602.474L232.635 602.844C230.06 596.457 264.968 453.899 266.118 447.21C268.975 430.591 271.093 381.076 264.599 345.591L203.384 348.408Z" fill="#F5B896" stroke="black" stroke-width="1.9" stroke-linecap="round" stroke-linejoin="round"/>
<path d="M153.808 603.919C150.396 598.484 153.12 586.605 153.536 577.086L138.906 556.689L125.539 570.575C129.501 576.557 137.494 609.992 147.808 613.399C163.765 618.67 158.528 611.439 153.808 603.919Z" fill="#3A3E46" stroke="black" stroke-width="1.9" stroke-linecap="round" stroke-linejoin="round"/>
<path d="M173.522 492.965L197.441 493.401L178.37 484.133L173.522 492.965Z" fill="black" stroke="black" stroke-width="1.9" stroke-linecap="round" stroke-linejoin="round"/>
<path d="M223.727 506.202L244.545 497.394L223.595 496.987L223.727 506.202Z" fill="black" stroke="black" stroke-width="1.9" stroke-linecap="round" stroke-linejoin="round"/>
<path d="M272.179 444.059C271.773 416.765 274.577 374.896 269.037 343.474C269.037 343.474 252.767 334.551 234.511 336.94C216.255 339.329 203.167 342.249 203.167 342.249C181.24 361.018 181.261 405.751 176.97 430.827C173.537 450.887 155.67 471.16 143.82 490.786C161.025 489.893 189.303 485.959 196.135 489.576C182.051 499.137 249.41 491.517 232.882 500.629C223.307 505.908 250.28 508.882 268.146 514.383C270.886 493.696 272.516 466.683 272.179 444.059Z" fill="#D1D5DB" stroke="black" stroke-width="1.9" stroke-linecap="round" stroke-linejoin="round"/>
<path d="M208.101 404.212C212.15 425.246 207.76 451.093 194.537 490.61" stroke="black" stroke-width="1.9" stroke-linecap="round" stroke-linejoin="round"/>
<path d="M233.919 499.638C238.509 484.228 242.782 454.427 238.001 416.325" stroke="black" stroke-width="1.9" stroke-linecap="round" stroke-linejoin="round"/>
</svg><svg xmlns="http://www.w3.org/2000/svg" width="500" height="700" viewBox="0 0 500 700" fill="none" class="injected-svg" data-src="/singaporean/upper/templated-065-hold-left-short-sleeve-tshirt.svg" xmlns:xlink="http://www.w3.org/1999/xlink">
<g id="templated-065 - hold-left short sleeve tshirt">
<g id="NEW your singaporean">
<g id="upper body">
<path id="left hand shadow-1574" d="M271.146 294.5C278.746 293.3 287.646 283.667 291.146 279L269.146 289L271.146 294.5Z" fill="black" stroke="black" stroke-width="1.9" stroke-linecap="round" stroke-linejoin="round"/>
<path id="left hand-1575" d="M292.146 293.5L282.352 273.973C279.738 272.68 270.241 278.075 268.252 283.027C268.252 283.027 274.424 308.427 282.352 309.5C290.28 310.573 332.687 310.203 355.463 297.656C357.515 296.736 358.325 294.649 358.877 292.361C360.458 291.229 360.296 289.236 359.445 288.301C360.551 286.205 359.392 284.293 358.55 283.015C356.669 280.161 351.114 281.037 347.402 282.189C344.68 272.26 334.501 272.158 336.812 274.97C341.573 280.765 340.414 285.337 340.414 285.337C340.414 285.337 336.146 289.222 320.146 292.361C304.146 295.5 292.146 293.5 292.146 293.5Z" fill="#F5B896" stroke="black" stroke-width="1.9" stroke-linecap="round" stroke-linejoin="round"/>
<g id="clothing">
<g id="Vector 40">
<path d="M233.784 221C257.146 227.5 274.146 265 290.646 278.5C290.646 278.5 274.537 284.5 269.037 290C275.532 312.632 278.434 333.975 278.784 345.5C263.284 340 235.284 343 224.784 348C216.384 352 196.617 349 187.784 347C184.646 335 190.146 305.5 200.284 287C194.284 283.5 179.284 281 169.284 278.5C175.684 254.9 199.284 226.333 210.284 215L233.784 221Z" fill="#3A3E46"/>
<path d="M200.284 287C194.284 283.5 179.284 281 169.284 278.5C175.684 254.9 199.284 226.333 210.284 215L233.784 221C257.146 227.5 274.146 265 290.646 278.5C290.646 278.5 274.537 284.5 269.037 290M200.284 287C190.146 305.5 184.646 335 187.784 347C196.617 349 216.384 352 224.784 348C235.284 343 263.284 340 278.784 345.5C278.117 323.5 268.146 265.731 241.646 231.5M200.284 287L210.284 292C207.784 280.5 212.146 250.5 215.146 233.5" stroke="black" stroke-width="1.9" stroke-linecap="round" stroke-linejoin="round"/>
</g>
<path id="Vector 42-1576" d="M169.299 278.5C179.521 285.004 202.332 296.96 209.799 292.5C197.132 287.39 170.899 277.385 169.299 278.5Z" fill="black" stroke="black" stroke-width="1.9" stroke-linecap="round" stroke-linejoin="round"/>
<g id="Vector 45">
<path d="M189.954 382.737C187.4 374.914 193.349 324.304 203.53 288.738C193.299 283 182.799 281.737 178.407 281.737C172.123 313.855 177.164 351.081 176.416 382.737C173.995 390.604 173.037 407.04 176.416 410.237C178.529 412.237 179.029 410.237 179.029 408.737C179.651 410.72 179.484 412.37 181.256 412.37C183.029 412.37 183.629 409.213 183.677 408.182C183.677 411.208 184.788 412.37 186.702 412.37C190.029 412.237 187.913 401.946 189.954 394.547C191.088 396.722 194.28 400.391 197.971 397.658C199.029 396.875 190.831 388.957 189.954 382.737Z" fill="#F5B896"/>
<path d="M183.677 408.182C183.677 411.208 184.788 412.37 186.702 412.37C190.029 412.237 187.913 401.946 189.954 394.547C191.088 396.722 194.28 400.391 197.971 397.658C199.029 396.875 190.831 388.957 189.954 382.737C187.4 374.914 193.349 324.304 203.53 288.738C193.299 283 182.799 281.737 178.407 281.737C172.123 313.855 177.164 351.081 176.416 382.737C173.995 390.604 173.037 407.04 176.416 410.237C178.529 412.237 179.029 410.237 179.029 408.737M183.677 408.182C183.629 409.213 183.029 412.37 181.256 412.37C179.484 412.37 179.651 410.72 179.029 408.737M183.677 408.182C183.677 408.182 183.029 403.237 183.677 394.547M179.029 408.737C179.029 408.737 177.529 398.737 179.029 394.547" stroke="black" stroke-width="1.9" stroke-linecap="round" stroke-linejoin="round"/>
</g>
<path id="Vector 545-1577" d="M205.799 290L192.799 348C192.799 343.638 199.799 307.516 203.299 290H205.799Z" fill="black" stroke="black" stroke-width="1.9" stroke-linecap="round" stroke-linejoin="round"/>
</g>
<g id="object-hold-left" transform="translate(269.799 207)">

<g><svg xmlns="http://www.w3.org/2000/svg" width="164" height="169" viewBox="0 0 164 169" fill="none" class="injected-svg" data-src="/singaporean/object/hold-left/031-voucher.svg" xmlns:xlink="http://www.w3.org/1999/xlink">
<path d="M60.3284 39.6892L60.3284 39.6892L60.3248 39.6987C57.5263 47.0522 54.0879 58.461 52.8251 68.8526C52.1934 74.0519 52.1131 78.9439 52.9005 82.9274C53.6811 86.8773 55.2857 89.8052 57.9115 91.3501L80.7125 87.2142C78.0242 84.1349 77.4457 78.7217 79.7358 71.3928C82.0698 63.9234 87.4395 54.2444 97.0396 42.4592C97.3815 41.9299 97.8702 41.3968 98.292 40.9367C98.4074 40.8108 98.5178 40.6904 98.6188 40.577C98.8783 40.2858 99.0923 40.0267 99.2491 39.7873C99.4082 39.5442 99.4744 39.3715 99.492 39.2543C99.5053 39.1653 99.4953 39.0939 99.4318 38.9973C99.3529 38.8772 99.1685 38.6895 98.7581 38.464C97.9332 38.0107 96.4367 37.5332 93.8978 37.0732C90.9796 36.9684 88.998 37.2686 87.5771 37.7442C86.162 38.2177 85.2601 38.8791 84.514 39.5659C84.2383 39.8196 83.9931 40.0676 83.7402 40.3234C83.6363 40.4284 83.5312 40.5347 83.4221 40.6433C83.0603 41.0035 82.6704 41.372 82.2202 41.6938C81.2842 42.3629 80.1543 42.7824 78.5021 42.7531C76.2192 43.039 74.7802 41.8981 73.7506 40.78C73.4964 40.5039 73.2603 40.222 73.045 39.9645L73.0307 39.9474C72.8164 39.691 72.6257 39.4628 72.4376 39.2587C72.0562 38.8448 71.783 38.6428 71.5567 38.5694C71.1961 38.5474 70.8048 38.5204 70.3909 38.4917C68.665 38.3723 66.5472 38.2258 64.6333 38.3086C63.44 38.3602 62.3914 38.4998 61.6049 38.7629C60.7999 39.0323 60.4459 39.3688 60.3284 39.6892Z" fill="#E9EAEE" stroke="black" stroke-width="1.66862"/>
<path d="M62.8838 42.9073L62.8839 42.9073L62.8802 42.9162C59.7324 50.6454 55.7411 62.7042 53.9564 73.8234C53.0635 79.3861 52.7309 84.6664 53.3084 89.0332C53.8823 93.3725 55.3337 96.6663 57.8658 98.5226L88.7822 96.1406C82.9491 89.3649 78.8558 72.5998 99.0074 48.612C99.3708 48.0684 99.8795 47.5306 100.321 47.0644C100.441 46.9374 100.556 46.8156 100.662 46.7005C101.239 46.0729 101.547 45.6374 101.612 45.2979C101.636 45.1713 101.625 45.06 101.555 44.9277C101.475 44.7767 101.297 44.5582 100.909 44.2892C100.122 43.7432 98.6711 43.1227 96.1777 42.4464C93.2953 42.1282 91.3284 42.3148 89.9103 42.7265C88.5049 43.1344 87.5874 43.7777 86.8154 44.4646C86.5315 44.7171 86.2779 44.9654 86.0163 45.2215C85.9072 45.3282 85.7967 45.4363 85.6821 45.5467C85.3067 45.9081 84.902 46.2776 84.4391 46.5931C83.4727 47.2519 82.3194 47.6295 80.6717 47.4812C78.3655 47.628 76.9994 46.2778 76.0558 45.0238C75.82 44.7104 75.6021 44.3919 75.4026 44.0994L75.3876 44.0774C75.1899 43.7877 75.0125 43.5278 74.8365 43.2938C74.477 42.8161 74.2148 42.5778 74.0006 42.4831C73.6462 42.4341 73.2624 42.3776 72.8571 42.318C71.1555 42.0676 69.0731 41.7612 67.1804 41.7159C66.0012 41.6877 64.9667 41.7644 64.1866 41.9894C63.4009 42.216 63.0269 42.5439 62.8838 42.9073Z" fill="#E9EAEE" stroke="black" stroke-width="1.66862"/>
<path d="M85.6387 97.0186C87.6705 96.6249 89.1718 96.217 90.2642 95.7942C91.3749 95.3642 91.9988 94.9428 92.3375 94.5644C92.6473 94.2183 92.7466 93.8788 92.7293 93.481C92.7115 93.0729 92.5692 92.5895 92.316 91.9826L59.1757 94.2082C59.5968 95.3735 59.8121 96.2559 59.7808 96.9922C59.7533 97.6391 59.54 98.1212 59.2437 98.5353L85.6387 97.0186Z" fill="#D1D5DB" stroke="black" stroke-width="1.66862"/>
<line y1="-0.476749" x2="25.3994" y2="-0.476749" transform="matrix(0.998389 0.0567901 -0.0567868 0.998384 55.8965 82.1172)" stroke="black" stroke-width="0.953498" stroke-dasharray="2.43 2.43"/>
<g clip-path="url(#clip0_7151_82015-1581)">
<path d="M75.6713 70.5202C75.7817 70.5114 75.8892 70.4809 75.9878 70.4304C76.0863 70.3799 76.1738 70.3104 76.2453 70.2259L77.45 68.8073L79.275 69.1393C79.4951 69.1793 79.7222 69.1303 79.9061 69.0029C80.0901 68.8756 80.2159 68.6804 80.256 68.4603L80.588 66.6352L82.3398 66.0073C82.4788 65.9567 82.6022 65.8707 82.6979 65.7579C82.7936 65.6451 82.8583 65.5094 82.8856 65.364C82.9118 65.2196 82.8998 65.0691 82.8492 64.9278L82.2218 63.1778L83.4264 61.7592C83.571 61.5886 83.642 61.3677 83.6238 61.1448C83.6057 60.9219 83.4999 60.7154 83.3297 60.5704L81.911 59.3666L82.243 57.5415C82.283 57.3214 82.234 57.0944 82.1067 56.9104C81.9793 56.7265 81.7841 56.6006 81.564 56.5606L79.739 56.2286L79.111 54.4767C79.0737 54.3724 79.0161 54.2764 78.9416 54.1943C78.8671 54.1122 78.7771 54.0457 78.6769 53.9984C78.5766 53.9511 78.468 53.924 78.3573 53.9187C78.2466 53.9134 78.1359 53.9299 78.0316 53.9674L76.2807 54.5947L74.8638 53.3903C74.6933 53.2456 74.4723 53.1744 74.2494 53.1926C74.0264 53.2107 73.8198 53.3166 73.675 53.4871L72.4704 54.9056L70.6445 54.5735C70.4243 54.5334 70.1973 54.5825 70.0134 54.7098C69.8294 54.8372 69.7036 55.0324 69.6635 55.2525L69.3315 57.0775L67.5806 57.7048C67.3704 57.7808 67.1985 57.9365 67.1022 58.1382C67.0545 58.2383 67.0272 58.3469 67.0218 58.4576C67.0163 58.5683 67.0329 58.679 67.0706 58.7833L67.6976 60.5358L66.4931 61.9536C66.3483 62.1241 66.2772 62.3451 66.2953 62.568C66.3134 62.7909 66.4193 62.9975 66.5898 63.1424L68.0083 64.347L67.6763 66.1721C67.6363 66.3922 67.6853 66.6192 67.8127 66.8032C67.94 66.9871 68.1352 67.113 68.3553 67.153L70.1804 67.485L70.8083 69.2369C70.8843 69.4474 71.0407 69.6193 71.2432 69.7148C71.4457 69.8102 71.6777 69.8216 71.8886 69.7463L73.6388 69.1181L75.0557 70.3224C75.2269 70.4668 75.4481 70.5378 75.6713 70.5202ZM75.7896 62.0078C75.2642 64.896 73.6262 65.0439 72.6959 64.8747C71.6277 64.6804 70.7074 63.6307 70.7295 61.9448L69.8389 61.7828L70.1409 60.1228L71.0613 60.2903C71.6634 58.913 72.9615 58.5781 73.8131 58.733L73.6621 59.563L73.5261 60.3956C73.2086 60.3499 72.6487 60.4204 72.4698 61.4039C72.2737 62.482 72.5953 63.1416 72.9978 63.2148C73.3082 63.2712 73.8278 63.3657 74.1297 61.7058C74.6551 58.8176 76.2931 58.6697 77.2235 58.8389C78.2916 59.0332 79.2119 60.0829 79.1899 61.7688L80.0904 61.9326L79.7884 63.5926L78.8921 63.4295C78.2344 65.3154 76.7767 65.617 76.0157 65.4786L76.3176 63.8186C76.438 63.8311 77.1716 63.8377 77.4495 62.3097C77.6579 61.1644 77.266 60.5615 76.9215 60.4988C76.6518 60.4498 76.0916 60.3478 75.7896 62.0078Z" fill="#3A3E46"/>
</g>
<defs>
<clipPath id="clip0_7151_82015-1581">
<rect width="20.2458" height="20.2458" fill="white" transform="matrix(0.178969 -0.983857 0.983853 0.178961 63.1885 70.0049)"/>
</clipPath>
</defs>
</svg></g></g>
<g id="fingers">
<path id="Ellipse 14-1578" d="M346.434 285.195C347.183 287.25 352.203 286.197 355.575 284.967C358.948 283.737 359.199 282.255 358.647 280.741C358.095 279.227 356.949 278.255 353.576 279.484C350.204 280.714 345.684 283.139 346.434 285.195Z" fill="#F5B896" stroke="black" stroke-width="1.9" stroke-linecap="round" stroke-linejoin="round"/>
<path id="Ellipse 15-1579" d="M348.434 290.195C349.183 292.25 354.203 291.197 357.575 289.967C360.948 288.737 361.199 287.255 360.647 285.741C360.095 284.227 358.949 283.255 355.576 284.484C352.204 285.714 347.684 288.139 348.434 290.195Z" fill="#F5B896" stroke="black" stroke-width="1.9" stroke-linecap="round" stroke-linejoin="round"/>
<path id="Ellipse 16-1580" d="M349.434 295.195C350.183 297.25 355.203 296.197 358.575 294.967C361.948 293.737 362.199 292.255 361.647 290.741C361.095 289.227 359.949 288.255 356.576 289.484C353.204 290.714 348.684 293.139 349.434 295.195Z" fill="#F5B896" stroke="black" stroke-width="1.9" stroke-linecap="round" stroke-linejoin="round"/>
</g>
</g>
</g>
</g>
</svg><svg xmlns="http://www.w3.org/2000/svg" width="500" height="700" viewBox="0 0 500 700" fill="none" class="injected-svg" data-src="/singaporean/head/011-high-bun.svg" xmlns:xlink="http://www.w3.org/1999/xlink">
<path d="M261.224 191.057V152.557H219.631C219.631 163.557 215.121 167.223 214.119 169.557C210.277 166.723 202.193 163.957 200.589 171.557C198.985 179.157 204.125 183.571 208.468 184.071C211.676 201.271 211.614 212.39 209.609 216.557C213.618 224.557 227.649 223.223 234.164 221.557V209.057C261.024 209.857 261.224 200.057 261.224 191.057Z" fill="#F5B896" stroke="black" stroke-width="1.9" stroke-linejoin="round"/>
<path d="M233.663 209.057C230.152 208.897 224.384 207.856 222.828 204.972C222.762 204.83 222.699 204.692 222.638 204.557C222.692 204.699 222.755 204.838 222.828 204.972C225.261 210.267 230.539 220.278 233.663 221.057V209.057Z" fill="black" stroke="black" stroke-width="1.9" stroke-linecap="round" stroke-linejoin="round"/>
<path d="M214.741 170.307C219.552 169.107 221.757 162.807 222.258 159.807C228.272 159.807 238.093 153.595 242.252 150.49C244.726 155.117 257.968 158.629 264.281 159.807C266.754 146.284 258.355 135.365 253.846 131.596C242.822 121.096 197.344 125.166 190.328 156.166C184.716 180.966 202.213 197.307 211.735 197.307C211.735 197.307 212.171 197 212.236 196.807C213.037 194.407 211.902 185.807 211.233 181.807C203.216 181.807 198.706 173.807 202.213 168.807C205.02 164.807 211.735 168.14 214.741 170.307Z" fill="black" stroke="black" stroke-width="1.9" stroke-linecap="round" stroke-linejoin="round"/>
<ellipse cx="12.528" cy="12.5" rx="12.528" ry="12.5" transform="matrix(-1 0 0 1 205.465 117.269)" fill="black"/>
<path d="M191.434 122.269C186.924 123.269 183.416 125.769 184.418 132.769" stroke="white" stroke-width="1.9" stroke-linecap="round" stroke-linejoin="round"/>
<path d="M239.934 130.824C245.613 130.123 255.754 137.253 259.762 147.482" stroke="white" stroke-width="1.9" stroke-linecap="round" stroke-linejoin="round"/>
<path d="M222.931 160.9C220.483 166.941 217.057 181.105 222.931 189.434" stroke="black" stroke-width="1.78189" stroke-linecap="round" stroke-linejoin="round"/>
<path d="M260.803 160.515C262.349 164.499 265.286 175.399 264.667 187.121" stroke="black" stroke-width="1.78189" stroke-linecap="round" stroke-linejoin="round"/>
</svg><svg xmlns="http://www.w3.org/2000/svg" width="500" height="700" viewBox="0 0 500 700" fill="none" class="injected-svg" data-src="/singaporean/eyes/003-smile.svg" xmlns:xlink="http://www.w3.org/1999/xlink">
<path d="M250.291 167.669C252.797 166.669 257.307 168.269 257.307 172.669" stroke="black" stroke-width="1.5" stroke-linecap="round" stroke-linejoin="round"/>
<path d="M235.025 168.287C233.522 167.787 230.314 168.887 229.513 171.287" stroke="black" stroke-width="1.5" stroke-linecap="round" stroke-linejoin="round"/>
<ellipse cx="1.50336" cy="1.5" rx="1.50336" ry="1.5" transform="matrix(-1 0 0 1 236.528 171.18)" fill="black"/>
<ellipse cx="1.50336" cy="1.5" rx="1.50336" ry="1.5" transform="matrix(-1 0 0 1 252.564 170.169)" fill="black"/>
<path d="M239.244 179.528C240.05 176.887 242.85 175.398 245.498 176.203C248.145 177.008 249.638 179.802 248.831 182.443C248.353 184.008 247.176 185.168 245.745 185.687" stroke="black" stroke-width="1.5" stroke-linecap="round" stroke-linejoin="round"/>
</svg><svg xmlns="http://www.w3.org/2000/svg" width="500" height="700" viewBox="0 0 500 700" fill="none" class="injected-svg" data-src="/singaporean/mouth/001-laughing.svg" xmlns:xlink="http://www.w3.org/1999/xlink">
<path d="M237.958 199.066C231.844 196.97 227.011 185.327 230.509 186.875C233.956 190.091 243.954 194.94 252.688 190.66C254.783 189.634 249.785 203.121 237.958 199.066Z" fill="black" stroke="black" stroke-width="1.5" stroke-linecap="round" stroke-linejoin="round"/>
<path d="M240.23 196.734C243.43 194.684 246.61 196.497 247.749 197.584C240.035 201.378 235.279 197.19 233.302 194.64C235.725 192.787 239.129 195.121 240.23 196.734Z" fill="white"/>
</svg><svg xmlns="http://www.w3.org/2000/svg" width="0" height="0" viewBox="0 0 0 0" fill="none" class="injected-svg" data-src="/singaporean/accessory/001-none.svg" xmlns:xlink="http://www.w3.org/1999/xlink">
</svg></g>
<g id="singaporean-box-2" transform="matrix(-0.99944 0.0334696 0.0324872 0.999472 404.4 1.9126) scale(1.00)" style="--color-illustration-primary: #3A3E46; --color-illustration-secondary: #D1D5DB; --color-illustration-accent: #EF4444; --color-illustration-skin: #F5B896;">

<svg xmlns="http://www.w3.org/2000/svg" width="500" height="700" viewBox="0 0 500 700" fill="none" class="injected-svg" data-src="/singaporean/lower/001-leaning-to-side.svg" xmlns:xlink="http://www.w3.org/1999/xlink">
<path d="M260.416 614.7C254.833 614.7 245.335 608.024 238.898 602.111H218.483L215.477 624.428H255.45C272.249 624.428 268.141 614.7 260.416 614.7Z" fill="#3A3E46" stroke="black" stroke-width="1.9" stroke-linecap="round" stroke-linejoin="round"/>
<path d="M140.61 621.306C146.121 621.306 158.462 608.478 154.881 602.111H181.393L179.388 624.684C173.216 624.493 158.616 632.521 146.09 632.521C129.508 632.521 132.985 621.306 140.61 621.306Z" fill="#3A3E46" stroke="black" stroke-width="1.9" stroke-linecap="round" stroke-linejoin="round"/>
<path d="M145.495 622.528C146.963 622.422 150.465 623.291 152.729 627.616" stroke="black" stroke-width="1.9" stroke-linecap="round" stroke-linejoin="round"/>
<path d="M190.433 604.917L146.685 606.814C169.004 543.766 186.424 415.709 191.661 347.722L270.301 342C285.722 379.422 270.301 415.709 270.301 415.709C270.301 415.709 242.533 570.07 252.313 605.159L229.712 604.301L212.691 605.159L232.063 391.678H227.461C227.461 399.868 201.781 547.272 190.433 604.917Z" fill="#D1D5DB" stroke="black" stroke-width="1.9" stroke-linecap="round" stroke-linejoin="round"/>
<path d="M218.58 389.504C223.217 390.941 233.517 392.952 237.618 389.504" stroke="black" stroke-width="1.9" stroke-linecap="round" stroke-linejoin="round"/>
<path d="M251.814 358.357C251.814 367.213 255.313 381.226 271.168 381.226" stroke="black" stroke-width="1.9" stroke-linecap="round" stroke-linejoin="round"/>
</svg><svg xmlns="http://www.w3.org/2000/svg" width="500" height="700" viewBox="0 0 500 700" fill="none" class="injected-svg" data-src="/singaporean/upper/templated-051-hold-left-polka-dot-top-pointing.svg" xmlns:xlink="http://www.w3.org/1999/xlink">
<g id="templated-051 - hold-left polka dot top pointing">
<g id="NEW your singaporean">
<g id="upper body">
<g id="clothing">
<g id="Vector 40">
<path d="M212.298 215L233.798 220C243.442 223.64 268.66 247.014 290.16 275.014C292.828 283.744 278.457 295.95 275.16 306.514C271.532 318.139 278.798 328.408 278.798 344.5C256.798 342 236.798 344.5 224.798 347C215.69 348.898 196.632 348 187.798 346C197.398 340.8 200.298 306.667 200.298 286C194.298 282.5 179.298 280 169.298 277.5C175.698 253.9 201.298 226.333 212.298 215Z" fill="#3A3E46"/>
<path d="M200.298 286C194.298 282.5 179.298 280 169.298 277.5C175.698 253.9 201.298 226.333 212.298 215L233.798 220C243.442 223.64 268.66 247.014 290.16 275.014C292.828 283.744 278.457 295.95 275.16 306.514C271.532 318.139 278.798 328.408 278.798 344.5C256.798 342 236.798 344.5 224.798 347C215.69 348.898 196.632 348 187.798 346C197.398 340.8 200.298 306.667 200.298 286ZM200.298 286L210.298 291C210.298 275.014 210.298 261.5 212.298 246" stroke="black" stroke-width="1.9" stroke-linecap="round" stroke-linejoin="round"/>
</g>
<circle id="Ellipse 114" cx="213.799" cy="307" r="9" fill="white"/>
<g id="Mask group">
<mask id="mask0_7671_124744-1582" style="mask-type:alpha" maskUnits="userSpaceOnUse" x="170" y="215" width="121" height="133">
<path id="Vector 109-1583" d="M212.086 215L233.73 220.001C241.799 223.5 269.799 249.5 290.468 278.027C293.154 286.759 278.687 295.967 275.368 306.534C271.716 318.16 279.031 328.432 279.031 344.527C261.799 341.5 237.299 342.5 225.799 346.028C216.855 348.771 196.315 348.028 187.422 346.028C197.087 340.827 200.006 306.686 200.006 286.015C193.966 282.514 180.366 280.001 170.299 277.5C176.742 253.895 201.013 226.336 212.086 215Z" fill="#1361F0"/>
</mask>
<g mask="url(#mask0_7671_124744-1582)">
<g id="Group 617">
<circle id="Ellipse 113" cx="175.799" cy="260" r="13" fill="white"/>
<circle id="Ellipse 115" cx="248.799" cy="232" r="9" fill="white"/>
<path id="Ellipse 116-1584" d="M222.799 268C222.799 272.971 216.269 277 211.298 277C210.798 277 211.298 272.971 211.298 268C211.298 263.029 212.299 258.5 212.299 258.5C217.269 258.5 222.799 263.029 222.799 268Z" fill="white"/>
<path id="Ellipse 119-1585" d="M257.799 266.5C257.799 271.471 258.769 269 253.799 269C248.828 269 244.799 264.971 244.799 260C244.799 256.467 246.835 253.408 249.799 251.936C251.004 251.337 250.362 254.5 251.799 254.5C252.299 255 255.799 262 257.799 266.5Z" fill="white"/>
<circle id="Ellipse 117" cx="225.799" cy="343" r="9" fill="white"/>
<circle id="Ellipse 118" cx="277.799" cy="334" r="9" fill="white"/>
</g>
</g>
</g>
<path id="Vector 63-1586" d="M246.161 246.515C262.661 269.015 278.132 328.334 279.299 344.5" stroke="black" stroke-width="1.9" stroke-linecap="round" stroke-linejoin="round"/>
<path id="Vector 42-1587" d="M168.799 278.086C179.277 284.59 195.799 298.989 209.799 292.023C196.815 286.913 170.439 276.972 168.799 278.086Z" fill="black" stroke="black" stroke-width="1.9" stroke-linecap="round" stroke-linejoin="round"/>
<path id="Vector 108-1588" d="M232.16 297.014L196.16 330.514L198.16 320.014L232.16 297.014Z" fill="black" stroke="black" stroke-width="1.9" stroke-linecap="round" stroke-linejoin="round"/>
</g>
<g id="hands">
<path id="Vector 103-1589" d="M317.66 324.015C325.16 311.015 302.356 290.901 289.189 276.235L285.16 278.015L266.521 287.639L266.521 288.473C272.313 293.755 273.073 311.926 281.299 315.617C297.212 322.756 314.034 326.322 317.66 324.015Z" fill="#F5B896" stroke="black" stroke-width="1.9" stroke-linecap="round" stroke-linejoin="round"/>
<g id="Vector 45">
<path d="M244.161 274.514C240.366 274.514 245.661 281.201 240.161 280.514C225.433 278.673 203.619 294.919 197.799 295.559C195.716 295.788 197.829 292.694 201.299 286.499C192.899 282.499 176.799 278.321 172.299 277.988C168.299 283.488 152.161 326.513 164.161 333.013C182.161 340.513 227.01 292.417 234.799 296.999C243.299 301.999 247.299 295.716 245.299 294.499C247.799 294.988 249.299 289.514 241.299 287.499C254.099 289.973 261.661 292.514 262.661 289.514C262.661 286.014 249.661 285.014 246.799 284.014C249.799 282.514 247.161 274.514 244.161 274.514Z" fill="#F5B896"/>
<path d="M172.299 306.988L197.799 295.559M197.799 295.559C195.716 295.788 197.829 292.694 201.299 286.499C192.899 282.499 176.799 278.321 172.299 277.988C168.299 283.488 152.161 326.513 164.161 333.013C182.161 340.513 227.01 292.417 234.799 296.999C243.299 301.999 247.299 295.716 245.299 294.499M197.799 295.559C203.619 294.919 225.433 278.673 240.161 280.514C245.661 281.201 240.366 274.514 244.161 274.514C247.161 274.514 249.799 282.514 246.799 284.014C249.661 285.014 262.661 286.014 262.661 289.514C261.661 292.514 254.099 289.973 241.299 287.499C249.299 289.514 247.799 294.988 245.299 294.499M245.299 294.499C243.799 294.255 239.299 292.999 239.299 292.999C239.299 292.999 243.161 294.499 245.299 294.499Z" stroke="black" stroke-width="1.9" stroke-linecap="round" stroke-linejoin="round"/>
</g>
<g id="object-hold-left" transform="translate(237.09 193.388) rotate(25.2762)">

<g><svg xmlns="http://www.w3.org/2000/svg" width="164" height="169" viewBox="0 0 164 169" fill="none" class="injected-svg" data-src="/singaporean/object/hold-left/004-phone.svg" xmlns:xlink="http://www.w3.org/1999/xlink">
<path d="M55.5587 106.8L58.1321 56.6771C58.1868 55.6109 59.0692 54.7757 60.1367 54.7796L85.7835 54.8725C86.9113 54.8766 87.8127 55.812 87.7751 56.9392L86.3186 100.599L86.1087 106.89C86.0728 107.966 85.1921 108.82 84.1158 108.823L57.5621 108.903C56.4149 108.906 55.4999 107.946 55.5587 106.8Z" fill="#EF4444" stroke="black" stroke-width="1.9" stroke-linecap="round" stroke-linejoin="round"/>
<circle cx="65.71" cy="63.9678" r="3" transform="rotate(-11.4818 65.71 63.9678)" fill="black"/>
</svg></g></g>
</g>
<path id="Vector 104-1590" d="M270.72 297.4C266.315 297.767 267.355 301.529 268.426 303.364C267.326 303.462 265.088 304.134 264.939 306.035C264.651 309.686 292.134 322.092 304.096 323.961L304.799 308.411C293.329 305.645 289.531 297.858 289.531 297.858C290.449 294.647 292.468 287.968 289.531 285.398C287.412 288.589 284.209 295.536 283.108 295.564C282.343 295.717 279.805 295.656 275.767 294.188C271.729 292.72 269.7 295.564 270.72 297.4Z" fill="#F5B896"/>
<path id="Vector 105-1591" d="M268.426 303.363C267.355 301.528 266.315 297.766 270.72 297.399M268.426 303.363C272.463 306.3 277.449 307.34 279.437 307.493M268.426 303.363C267.326 303.461 265.088 304.133 264.939 306.034C264.651 309.686 292.521 321.528 304.483 323.397M270.72 297.399C269.7 295.563 271.729 292.719 275.767 294.187C279.804 295.655 282.343 295.716 283.108 295.563C284.209 295.535 286.519 285.525 290.603 285.525C293.539 288.095 290.449 294.646 289.531 297.858C289.531 297.858 293.329 305.644 304.799 308.41M270.72 297.399C272.555 300.702 278.214 302.14 280.814 302.446" stroke="black" stroke-width="1.9" stroke-linecap="round" stroke-linejoin="round"/>
</g>
</g>
</g>
</svg><svg xmlns="http://www.w3.org/2000/svg" width="500" height="700" viewBox="0 0 500 700" fill="none" class="injected-svg" data-src="/singaporean/head/037-bowl-cut.svg" xmlns:xlink="http://www.w3.org/1999/xlink">
<path d="M261.289 191.021V152.521C261.289 152.521 257.28 132.509 232.725 132.009C208.17 131.509 205.665 151.509 205.665 151.509C205.665 161.086 208.703 166.464 212.466 169.379C208.321 166.891 202.045 164.924 200.653 171.521C199.05 179.121 207.335 183.021 211.678 183.521C214.885 200.721 211.678 212.354 209.674 216.521C213.683 224.521 227.714 223.188 234.228 221.521V209.021C261.088 209.821 261.289 200.021 261.289 191.021Z" fill="#F5B896" stroke="black" stroke-width="1.9" stroke-linejoin="round"/>
<path d="M233.663 209.057C230.152 208.897 224.384 207.856 222.828 204.972C222.762 204.83 222.699 204.692 222.638 204.557C222.692 204.699 222.755 204.838 222.828 204.972C225.261 210.267 230.539 220.278 233.663 221.057V209.057Z" fill="black" stroke="black" stroke-width="1.9" stroke-linecap="round" stroke-linejoin="round"/>
<path d="M215.15 172.065V159.565C218.789 157.766 225.74 158.07 235.732 157.565C236.327 157.535 236.806 139.58 238.237 139.565L240.944 153.453C241.289 155.838 241.572 157.565 241.745 157.565C251.799 157.565 261.289 157.399 264.796 159.565C270.309 154.065 259.284 121.565 232.224 130.566C219.338 126.899 195.141 133.065 202.658 168.065C208.17 165.565 213.313 170.232 215.15 172.065Z" fill="black"/>
<path d="M241.745 157.565C251.799 157.565 261.289 157.399 264.796 159.565C270.309 154.065 259.284 121.565 232.224 130.566C219.338 126.899 195.141 133.065 202.658 168.065C208.17 165.565 213.313 170.232 215.15 172.065V159.565C218.789 157.766 225.74 158.07 235.732 157.565C236.327 157.535 236.806 139.58 238.237 139.565M241.745 157.565C241.186 157.565 239.48 139.553 238.237 139.565M241.745 157.565L238.237 139.565" stroke="black" stroke-width="1.9" stroke-linecap="round" stroke-linejoin="round"/>
</svg><svg xmlns="http://www.w3.org/2000/svg" width="500" height="700" viewBox="0 0 500 700" fill="none" class="injected-svg" data-src="/singaporean/eyes/002-raised-eyebrows.svg" xmlns:xlink="http://www.w3.org/1999/xlink">
<ellipse cx="1.50336" cy="1.5" rx="1.50336" ry="1.5" transform="matrix(-1 0 0 1 237.029 175.011)" fill="black"/>
<ellipse cx="1.50336" cy="1.5" rx="1.50336" ry="1.5" transform="matrix(-1 0 0 1 253.065 174)" fill="black"/>
<path d="M236.027 167.512C233.522 166.512 229.012 168.112 229.012 172.512" stroke="black" stroke-width="1.5" stroke-linecap="round" stroke-linejoin="round"/>
<path d="M250.56 167.118C252.063 166.618 255.27 167.718 256.072 170.118" stroke="black" stroke-width="1.5" stroke-linecap="round" stroke-linejoin="round"/>
<path d="M239.244 179.528C240.05 176.887 242.85 175.398 245.498 176.203C248.145 177.008 249.638 179.802 248.831 182.443C248.353 184.008 247.176 185.168 245.745 185.687" stroke="black" stroke-width="1.5" stroke-linecap="round" stroke-linejoin="round"/>
</svg><svg xmlns="http://www.w3.org/2000/svg" width="500" height="700" viewBox="0 0 500 700" fill="none" class="injected-svg" data-src="/singaporean/mouth/002-wide-smile.svg" xmlns:xlink="http://www.w3.org/1999/xlink">
<path d="M228.009 184.5C228.009 188.5 230.515 192.078 234.181 194.169C239.794 197.369 246.551 196.5 250.217 193.669" stroke="black" stroke-width="1.5" stroke-linecap="round" stroke-linejoin="round"/>
</svg><svg xmlns="http://www.w3.org/2000/svg" width="500" height="700" viewBox="0 0 500 700" fill="none" class="injected-svg" data-src="/singaporean/accessory/020-round-sunglasses.svg" xmlns:xlink="http://www.w3.org/1999/xlink">
<ellipse cx="234.022" cy="174.5" rx="6.51454" ry="6.5" fill="black" stroke="black" stroke-width="1.9" stroke-linecap="round" stroke-linejoin="round"/>
<path d="M258.891 174.5C258.891 178.09 255.975 181 252.377 181C251.292 181 250.27 180.736 249.37 180.268C249.37 180.268 249.157 179.365 248.368 178C247.641 176.742 246.079 176.097 246.079 176.097C245.875 175.466 245.862 175.198 245.862 174.5C245.862 170.91 248.779 168 252.377 168C255.975 168 258.891 170.91 258.891 174.5Z" fill="black" stroke="black" stroke-width="1.9" stroke-linecap="round" stroke-linejoin="round"/>
<path d="M258.891 172.648L261.32 170.225" stroke="black" stroke-width="1.5" stroke-linecap="round" stroke-linejoin="round"/>
<path d="M214.479 168.5C217.485 170.167 224.1 173.5 226.506 173.5" stroke="black" stroke-width="1.5" stroke-linecap="round" stroke-linejoin="round"/>
<path d="M248.441 170.225L253.306 176.586" stroke="white" stroke-linecap="round" stroke-linejoin="round"/>
<path d="M250.407 169.432L254.34 174.526" stroke="white" stroke-linecap="round" stroke-linejoin="round"/>
<path d="M230.009 170.225L234.874 176.586" stroke="white" stroke-linecap="round" stroke-linejoin="round"/>
</svg></g>
<g id="singaporean-box-3" transform="matrix(-0.99944 0.0334696 0.0324872 0.999472 889.71 -0.107422) scale(1.00)" style="--color-illustration-primary: #3A3E46; --color-illustration-secondary: #D1D5DB; --color-illustration-accent: #EF4444; --color-illustration-skin: #F5B896;">

<svg xmlns="http://www.w3.org/2000/svg" width="500" height="700" viewBox="0 0 500 700" fill="none" class="injected-svg" data-src="/singaporean/lower/002-straight-cut-pants.svg" xmlns:xlink="http://www.w3.org/1999/xlink">
<path d="M255.566 613.6C250.495 613.6 241.869 606.924 236.022 601.011H217.481L217.481 623.327H251.056C266.313 623.327 262.582 613.6 255.566 613.6Z" fill="#3A3E46" stroke="black" stroke-width="1.9" stroke-linecap="round" stroke-linejoin="round"/>
<path d="M237.028 615.623C231.957 615.623 223.832 607.222 217.986 601.309H199.445L195.436 623.881C201.115 623.69 222.496 623.881 234.022 623.881C249.279 623.881 244.044 615.623 237.028 615.623Z" fill="#3A3E46" stroke="black" stroke-width="1.9" stroke-linecap="round" stroke-linejoin="round"/>
<path d="M191.73 403.799C182.108 371.755 195.738 353.063 203.756 347.722L260.884 342C265.394 386.633 254.369 468.46 254.369 468.46C254.369 468.46 241.34 599.194 244.848 604.917L229.814 603.2L223.3 604.917L186.917 606.814C203.756 493.401 193.066 440.04 191.73 403.799Z" fill="#D1D5DB" stroke="black" stroke-width="1.9" stroke-linecap="round" stroke-linejoin="round"/>
<path d="M225.305 364.889C223.3 374.044 215.683 390.638 201.251 383.772" stroke="black" stroke-width="1.9" stroke-linecap="round" stroke-linejoin="round"/>
<path d="M229.815 603.73L239.837 463.311L224.302 604.874L229.815 603.73Z" fill="black"/>
<path d="M244.848 362.601C248.857 411.239 239.837 463.311 239.837 463.311M239.837 463.311L229.815 603.73L224.302 604.874L239.837 463.311Z" stroke="black" stroke-width="1.9" stroke-linecap="round" stroke-linejoin="round"/>
</svg><svg xmlns="http://www.w3.org/2000/svg" width="500" height="700" viewBox="0 0 500 700" fill="none" class="injected-svg" data-src="/singaporean/upper/templated-025-carry-right-talking.svg" xmlns:xlink="http://www.w3.org/1999/xlink">
<g id="templated-025 - carry-right talking">
<g id="NEW your singaporean">
<g id="upper body">
<ellipse id="Ellipse 6035" cx="282.181" cy="265.435" rx="2.1958" ry="16.9204" transform="rotate(10.5407 282.181 265.435)" fill="black" stroke="black" stroke-width="1.9" stroke-linecap="round" stroke-linejoin="round"/>
<g id="Vector 74">
<path d="M297.86 198.121C297.86 198.121 305.196 210.186 305.196 221.803C305.196 226.612 306.385 251.584 305.196 262.57L283.607 252.048L276.368 273.764C284.234 278.354 302.12 285.34 309.913 287.005C335.36 292.443 319.86 239.239 319.86 219.621C325.36 212.121 333.57 210.516 335.36 209.621C338.36 208.121 333.484 205.166 324.529 207.2C326.776 206.69 328.547 206.502 333.484 206.176C336.638 205.968 332.86 202.621 328.571 202.997C332.61 202.643 332.36 201.044 331.36 200.621C323.41 197.259 312.041 201.258 307.857 205.799C307.511 202.381 298.714 192.236 297.86 198.121Z" fill="#F5B896"/>
<path d="M328.571 202.997C332.61 202.643 332.36 201.044 331.36 200.621C323.41 197.259 312.041 201.258 307.857 205.799C307.511 202.381 298.714 192.236 297.86 198.121C297.86 198.121 305.196 210.186 305.196 221.803C305.196 226.612 306.385 251.584 305.196 262.57M328.571 202.997C332.86 202.621 336.638 205.968 333.484 206.176C328.547 206.502 326.776 206.69 324.529 207.2M328.571 202.997C324.984 203.312 318.417 204.773 313.279 207.043M324.529 207.2C333.484 205.166 338.36 208.121 335.36 209.621C333.57 210.516 325.36 212.121 319.86 219.621C319.86 239.239 335.36 292.443 309.913 287.005C302.12 285.34 284.234 278.354 276.368 273.764L283.607 252.048L305.196 262.57M324.529 207.2C321.823 207.815 321.757 208.104 317.787 209.758M303.032 268.821C304.157 268.285 304.835 265.91 305.196 262.57" stroke="black" stroke-width="1.9" stroke-linecap="round" stroke-linejoin="round"/>
</g>
<g id="object-carry-right" transform="translate(37.7988 378)">

<g><svg xmlns="http://www.w3.org/2000/svg" width="208" height="169" viewBox="0 0 208 169" fill="none" class="injected-svg" data-src="/singaporean/object/carry-right/027-clipboard.svg" xmlns:xlink="http://www.w3.org/1999/xlink">
<rect width="53" height="76" transform="matrix(-0.0100889 0.999949 0.999947 0.0102715 106.106 24.332)" fill="#EF4444" stroke="black" stroke-width="1.9" stroke-linecap="round" stroke-linejoin="round"/>
<rect width="41" height="67" transform="matrix(-0.0101798 0.999948 0.999948 0.0101798 109.045 30.3623)" fill="white" stroke="black" stroke-width="1.9" stroke-linecap="round" stroke-linejoin="round"/>
<path d="M111.01 33.8293C109.025 32.3618 106.007 38.8341 105.608 40.5695C105.209 42.3048 102.846 38.9651 101.975 37.2165L101.715 62.7288C102.626 60.6118 105.191 57.3242 105.407 60.3265C105.623 63.3289 108.885 67.9542 110.67 67.1992L111.01 33.8293Z" fill="black" stroke="black" stroke-width="1.9" stroke-linecap="round" stroke-linejoin="round"/>
</svg></g></g>
<g id="clothing">
<g id="Vector 40">
<path d="M285.05 246.984C278.799 250.171 265.799 223.984 233.799 220.984L210.299 214.984C199.299 226.318 175.699 254.884 169.299 278.484C179.299 280.984 194.299 283.484 200.299 286.984C200.299 307.651 187.799 329.999 187.799 346.984C196.632 348.984 216.399 351.984 224.799 347.984C235.299 342.984 263.299 339.984 278.799 345.484C278.258 327.642 273.859 296.841 261.119 267.273C266.101 276.82 271.482 284.259 278.799 281.662C281.596 271.149 281.192 263.061 285.05 246.984Z" fill="#3A3E46"/>
<path d="M200.299 286.984C194.299 283.484 179.299 280.984 169.299 278.484C175.699 254.884 199.299 226.318 210.299 214.984L233.799 220.984C265.799 223.984 278.799 250.171 285.05 246.984C281.192 263.061 281.596 271.149 278.799 281.662C266.399 286.062 259.56 261.643 250.799 246.984M200.299 286.984C200.299 307.651 187.799 329.999 187.799 346.984C196.632 348.984 216.399 351.984 224.799 347.984C235.299 342.984 263.299 339.984 278.799 345.484C278.132 323.484 271.599 281.784 250.799 246.984M200.299 286.984L210.299 291.984C207.799 280.484 211.799 251.999 213.799 236.984M250.799 246.984C249.189 244.184 245.128 239.151 243.299 236.984" stroke="black" stroke-width="1.9" stroke-linecap="round" stroke-linejoin="round"/>
</g>
<path id="Vector 42-1592" d="M168.799 279.071C179.277 285.575 202.145 297.468 209.799 293.008C196.815 287.898 170.439 277.956 168.799 279.071Z" fill="black" stroke="black" stroke-width="1.9" stroke-linecap="round" stroke-linejoin="round"/>
<g id="Vector 45">
<path d="M189.223 384.499C186.669 376.676 192.619 326.066 202.799 290.5C193.799 283.499 182.979 282.192 177.676 283.499C171.392 315.617 176.434 352.843 175.685 384.499C173.265 392.365 172.306 408.802 175.685 411.999C177.799 413.999 178.299 411.999 178.299 410.499C178.921 412.481 178.753 414.132 180.526 414.132C182.299 414.132 182.899 410.975 182.946 409.944C182.946 412.969 184.058 414.132 185.972 414.132C189.299 413.999 187.182 403.708 189.223 396.308C190.358 398.484 193.55 402.152 197.241 399.42C198.299 398.636 190.101 390.719 189.223 384.499Z" fill="#F5B896"/>
<path d="M182.946 409.944C182.946 412.969 184.058 414.132 185.972 414.132C189.299 413.999 187.182 403.708 189.223 396.308C190.358 398.484 193.55 402.152 197.241 399.42C198.299 398.636 190.101 390.719 189.223 384.499C186.669 376.676 192.619 326.066 202.799 290.5C193.799 283.499 182.979 282.192 177.676 283.499C171.392 315.617 176.434 352.843 175.685 384.499C173.265 392.365 172.306 408.802 175.685 411.999C177.799 413.999 178.299 411.999 178.299 410.499M182.946 409.944C182.899 410.975 182.299 414.132 180.526 414.132C178.753 414.132 178.921 412.481 178.299 410.499M182.946 409.944C182.946 409.944 182.299 404.999 182.946 396.308M178.299 410.499C178.299 410.499 176.799 400.499 178.299 396.308" stroke="black" stroke-width="1.9" stroke-linecap="round" stroke-linejoin="round"/>
</g>
<path id="Vector 545-1593" d="M205.799 289.998L192.799 347.998C192.799 343.636 199.799 307.514 203.299 289.998H205.799Z" fill="black" stroke="black" stroke-width="1.9" stroke-linecap="round" stroke-linejoin="round"/>
</g>
<path id="Vector 3220-1594" d="M308.633 212.008C310.628 212.293 314.618 213.718 314.618 217.138" stroke="black" stroke-width="1.9" stroke-linecap="round" stroke-linejoin="round"/>
</g>
</g>
</g>
</svg><svg xmlns="http://www.w3.org/2000/svg" width="500" height="700" viewBox="0 0 500 700" fill="none" class="injected-svg" data-src="/singaporean/head/032-salt-and-pepper.svg" xmlns:xlink="http://www.w3.org/1999/xlink">
<path d="M261.289 191.021V152.521C261.289 152.521 257.28 132.509 232.725 132.009C208.17 131.509 205.665 151.509 205.665 151.509C205.665 161.086 208.703 166.464 212.466 169.379C208.321 166.891 202.046 164.924 200.654 171.521C199.05 179.121 207.335 183.021 211.678 183.521C214.885 200.721 211.678 212.354 209.674 216.521C213.683 224.521 227.714 223.188 234.228 221.521V209.021C261.088 209.821 261.289 200.021 261.289 191.021Z" fill="#F5B896" stroke="black" stroke-width="1.9" stroke-linejoin="round"/>
<path d="M233.663 209.057C230.152 208.897 224.384 207.856 222.828 204.972C222.762 204.83 222.699 204.692 222.638 204.557C222.692 204.699 222.755 204.838 222.828 204.972C225.261 210.267 230.539 220.278 233.663 221.057V209.057Z" fill="black" stroke="black" stroke-width="1.9" stroke-linecap="round" stroke-linejoin="round"/>
<path d="M215.149 172.627V156.127C218.192 145.127 226.747 156.627 238.738 156.627C248.792 156.627 257.78 146.627 261.754 156.627C268.304 151.127 270.845 139.627 266.299 135.627C261.753 131.627 257.279 135.127 256.778 135.627C256.945 133.127 255.776 127.627 249.762 125.627C243.749 123.627 241.577 127.96 241.243 130.127C240.408 128.294 234.729 123.127 229.216 124.127C223.704 125.127 223.704 129.794 223.203 131.627C221.879 130.627 220.196 126.127 216.689 127.127C213.181 128.127 213.503 133.627 213.181 134.627C212.524 133.96 209.501 131.227 206.666 131.627C203.123 132.127 201.154 138.627 201.154 142.127C199.951 154.127 203.302 164.46 205.127 168.127C208.735 167.327 213.312 170.794 215.149 172.627Z" fill="black" stroke="black" stroke-width="1.9" stroke-linecap="round" stroke-linejoin="round"/>
<path d="M232.724 150.127L230.72 147.127" stroke="white" stroke-width="1.5" stroke-linecap="round" stroke-linejoin="round"/>
<path d="M208.67 152.027L205.963 149.639" stroke="white" stroke-width="1.5" stroke-linecap="round" stroke-linejoin="round"/>
<path d="M237.989 146.268L239.485 142.986" stroke="white" stroke-width="1.5" stroke-linecap="round" stroke-linejoin="round"/>
<path d="M213.624 144.682L214.227 141.127" stroke="white" stroke-width="1.5" stroke-linecap="round" stroke-linejoin="round"/>
<path d="M248.756 146.385L247.157 143.152" stroke="white" stroke-width="1.5" stroke-linecap="round" stroke-linejoin="round"/>
<path d="M225.049 138.541L222.673 135.825" stroke="white" stroke-width="1.5" stroke-linecap="round" stroke-linejoin="round"/>
<path d="M257.762 145.343L259.432 142.145" stroke="white" stroke-width="1.5" stroke-linecap="round" stroke-linejoin="round"/>
<path d="M233.727 134.127L234.282 131.715" stroke="white" stroke-width="1.5" stroke-linecap="round" stroke-linejoin="round"/>
<path d="M248.588 135.645L249.382 132.127" stroke="white" stroke-width="1.5" stroke-linecap="round" stroke-linejoin="round"/>
</svg><svg xmlns="http://www.w3.org/2000/svg" width="500" height="700" viewBox="0 0 500 700" fill="none" class="injected-svg" data-src="/singaporean/eyes/006-eyes-closed.svg" xmlns:xlink="http://www.w3.org/1999/xlink">
<path d="M239.255 168.126C237.543 166.044 232.819 165.277 230.693 169.132" stroke="black" stroke-width="1.5" stroke-linecap="round" stroke-linejoin="round"/>
<path d="M249.793 167.267C250.866 166.103 254.206 165.516 256.072 167.228" stroke="black" stroke-width="1.5" stroke-linecap="round" stroke-linejoin="round"/>
<path d="M233.22 174.462C233.479 175.55 234.111 176.762 235.805 176.606C237.383 176.461 238.213 175.114 238.068 173.54" stroke="black" stroke-width="1.5" stroke-linecap="round" stroke-linejoin="round"/>
<path d="M250.367 173.763C250.577 174.861 251.153 176.1 252.852 176.022C254.435 175.948 255.326 174.641 255.252 173.061" stroke="black" stroke-width="1.5" stroke-linecap="round" stroke-linejoin="round"/>
<path d="M239.244 179.528C240.05 176.887 242.85 175.398 245.498 176.203C248.145 177.008 249.638 179.802 248.831 182.443C248.353 184.008 247.176 185.168 245.745 185.687" stroke="black" stroke-width="1.5" stroke-linecap="round" stroke-linejoin="round"/>
</svg><svg xmlns="http://www.w3.org/2000/svg" width="500" height="700" viewBox="0 0 500 700" fill="none" class="injected-svg" data-src="/singaporean/mouth/004-slight-smile.svg" xmlns:xlink="http://www.w3.org/1999/xlink">
<path d="M238.032 192.5C238.867 193.667 240.537 196 244.045 196C246.851 196 248.555 193.667 249.056 192.5" stroke="black" stroke-width="1.5" stroke-linecap="round" stroke-linejoin="round"/>
</svg><svg xmlns="http://www.w3.org/2000/svg" width="500" height="700" viewBox="0 0 500 700" fill="none" class="injected-svg" data-src="/singaporean/accessory/016-square-frames.svg" xmlns:xlink="http://www.w3.org/1999/xlink">
<path d="M246.042 169.94C247.219 168.547 249.018 168.547 252.348 168.547C255.678 168.547 256.972 168.765 258.391 169.94C259.222 170.627 259.224 174.129 259.083 176.914C258.979 178.957 257.26 180.5 255.214 180.5L249.274 180.5C249.274 180.5 249.155 178.947 248.053 177.62C246.951 176.292 245.547 175.872 245.547 175.872C245.547 175.872 244.865 171.332 246.042 169.94Z" stroke="black" stroke-width="1.5" stroke-linecap="round" stroke-linejoin="round"/>
<path d="M259.233 173.555L261.178 171.982" stroke="black" stroke-width="1.5" stroke-linecap="round" stroke-linejoin="round"/>
<path d="M225.503 169.94C226.279 168.95 229.011 168.5 234.023 168.5C239.034 168.5 239.542 168.816 240.734 169.94C241.926 171.064 241.539 176.366 241.539 176.366C241.539 176.366 240.832 176.897 240.178 177.808C239.524 178.72 239.207 180.5 239.207 180.5H229.192C227.109 180.5 225.372 178.901 225.267 176.82C225.126 174.008 225.052 170.517 225.503 169.94Z" stroke="black" stroke-width="1.5" stroke-linecap="round" stroke-linejoin="round"/>
<path d="M214.479 168.5C217.485 170.167 222.576 172.904 225.098 173.428" stroke="black" stroke-width="1.5" stroke-linecap="round" stroke-linejoin="round"/>
</svg></g>
</g>
<defs>
<clipPath id="clip0_7680_151763-1548">
<rect width="850" height="731" fill="white" transform="translate(0.719727)"/>
</clipPath>
</defs>
</svg>